<svg id="Capa_1" data-name="Capa 1" xmlns="http://www.w3.org/2000/svg" viewBox="0 0 139 122"><defs><style>.cls-1{fill:#094067;}</style></defs><title>MockUp_Proyecto DevDes icons</title><path class="cls-1" d="M69.5,2.56a58.45,58.45,0,0,0-50,88.76h0a58.45,58.45,0,1,0,50-88.77ZM53.18,38.78a16.32,16.32,0,1,1,28.3,11.07l-.18.21-.18.2-.18.16c-.14.14-.28.26-.43.39l-.22.2a16.92,16.92,0,0,1-1.37,1.1l-.26.19-.41.27c-.28.18-.57.35-.87.52l-.13.07L77,53.3a13.17,13.17,0,0,1-1.2.57l-.1,0a14.19,14.19,0,0,1-1.36.48l-.39.11c-.34.1-.67.18-1,.25l-.48.1c-.34.06-.67.11-1,.15l-.16,0-.29,0a14.54,14.54,0,0,1-3,0l-.29,0-.16,0c-.34,0-.68-.09-1-.15l-.32-.06-.18,0c-.33-.07-.66-.16-1-.26l-.37-.1c-.5-.16-.94-.32-1.37-.49l-.1,0c-.41-.17-.81-.36-1.2-.56l-.27-.15-.12-.07-.88-.52-.4-.27-.27-.2A15.34,15.34,0,0,1,58.67,51l-.22-.19c-.15-.13-.3-.26-.45-.41l-.31-.33-.2-.23A16.28,16.28,0,0,1,53.18,38.78ZM24.39,89l.22-1c.07-.32.14-.65.23-1s.25-.87.38-1.31l.23-.74c.09-.32.19-.65.3-1s.29-.81.44-1.21l.31-.79q.16-.48.36-.93T27.37,80l.36-.79c.14-.31.28-.61.43-.92s.38-.71.57-1.06l.44-.79c.16-.3.32-.6.49-.88s.41-.68.63-1l.48-.75c.18-.29.36-.59.56-.87s.46-.64.69-1l.55-.74c.2-.28.39-.55.6-.81s.49-.6.74-.89l.61-.72c.22-.26.43-.52.66-.77s.52-.55.79-.82l.67-.69c.23-.24.46-.49.7-.72s.55-.51.83-.76l.73-.66c.25-.23.49-.45.75-.67l.88-.71.78-.61.79-.61c.3-.23.62-.44.94-.65l.85-.59.78-.53q.51-.32,1-.6l.9-.53c.26-.16.52-.32.78-.46l1.14-.58.92-.45.76-.38c.47-.22,1-.41,1.45-.61l.39-.16.45-.19.63-.26c.83-.31,1.67-.6,2.51-.86l.05,0,.68.57.17.13.77.56c.23.17.47.33.71.49s.65.4,1,.59l.15.08c.2.12.41.23.62.34s.65.32,1,.47l0,0,.21.09.59.26c.33.13.67.25,1.1.39l.38.13.32.11.14.07h.1l.93.23.44.1.45.11c.42.08.85.13,1.34.19L67,60l.44.06a21.22,21.22,0,0,0,4.14,0L72,60l.35-.05c.39,0,.79-.1,1.19-.18l.1,0,.45-.1.43-.11c.32-.07.64-.14,1-.24l.13,0c.15,0,.3-.1.44-.15l.42-.15c.29-.09.57-.19.92-.32l.14-.06.43-.19.35-.16c.28-.13.55-.25.9-.43l.18-.09.39-.22.29-.17.79-.47.29-.18.35-.25.19-.14c.27-.19.54-.38.8-.59l.12-.08.21-.16.3-.27.19-.16c.84.26,1.68.56,2.51.87l.51.22.42.18.26.1c.58.24,1.16.47,1.73.74l.65.32.85.43c.44.21.88.43,1.32.67l.69.4.82.5c.4.23.8.46,1.19.7l.7.49.8.54c.36.25.72.49,1.07.75s.47.37.7.56l.77.6c.33.26.66.52,1,.78l.7.63.72.65c.3.27.6.54.89.82l.67.69.66.69c.28.29.56.57.83.87l.63.74.6.72c.26.3.52.61.77.92l.59.81.56.75c.23.32.46.63.68,1s.38.58.56.88l.48.75c.21.33.43.66.63,1s.34.62.51.94l.42.78c.19.34.38.68.55,1s.31.65.46,1l.35.78c.17.36.34.72.49,1.08s.27.69.4,1l.29.79c.14.37.28.74.41,1.11s.22.72.33,1.08l.24.8c.11.38.23.76.33,1.14s.18.76.26,1.14l.09.41.12.53.09.38a53.47,53.47,0,0,1-90.34-.19Zm90.9-12.65c-.11-.21-.23-.42-.34-.64l-.2-.37c-.35-.67-.7-1.34-1.08-2l-.48-.77-.24-.39c-.36-.58-.72-1.16-1.1-1.72-.2-.3-.41-.59-.61-.88L111,69.3c-.39-.53-.77-1.07-1.18-1.59-.26-.34-.53-.67-.8-1l-.12-.14c-.41-.5-.83-1-1.26-1.48s-.66-.74-1-1.1-.89-.93-1.35-1.38-.72-.69-1.08-1-.94-.87-1.43-1.29-.76-.65-1.15-1-1-.8-1.52-1.19l-1.2-.89c-.54-.38-1.08-.74-1.63-1.09L97.08,56l-1-.64c-.57-.35-1.15-.68-1.73-1L94,54.17c-.31-.17-.62-.35-.94-.51-.6-.32-1.21-.61-1.89-.93l-.41-.19c-.27-.13-.54-.27-.82-.39-.71-.31-1.44-.59-2.17-.87l-.39-.16L87,51a21,21,0,0,0,3.82-12.17,21.31,21.31,0,0,0-42.62,0A21.06,21.06,0,0,0,52,50.91l-.4.16-.41.16c-.72.28-1.44.55-2.15.86-.28.12-.56.26-.83.39l-.49.23c-.6.28-1.21.56-1.8.87l-.93.51-.34.19c-.58.32-1.15.64-1.72,1L41.84,56l-.19.12c-.54.35-1.08.7-1.6,1.07l-1.23.9q-.76.57-1.5,1.17c-.4.31-.79.64-1.17,1s-.95.83-1.41,1.26-.75.69-1.11,1.05-.89.89-1.32,1.35-.7.74-1,1.12-.82,1-1.23,1.44l-.11.14c-.29.34-.57.68-.84,1-.4.5-.77,1-1.15,1.54l-.19.27c-.23.31-.45.62-.67.94-.35.51-.68,1-1,1.57l-.3.47c-.18.28-.35.55-.52.84-.34.57-.65,1.16-1,1.76l-.28.52c-.13.24-.26.47-.38.71-.36.72-.72,1.5-1.16,2.52l-.11.24c-.05.12-.11.23-.16.36-.43,1-.84,2.11-1.21,3.2l-.18.61a53.46,53.46,0,1,1,97.27.2l0-.08c-.06-.17-.11-.35-.16-.52-.37-1.11-.78-2.2-1.21-3.24a2.56,2.56,0,0,0-.11-.24l-.06-.15C116.1,78.08,115.69,77.18,115.29,76.36Z"/></svg>