<svg id="Capa_1" data-name="Capa 1" xmlns="http://www.w3.org/2000/svg" viewBox="0 0 139 122"><defs><style>.cls-1{opacity:0.75;}.cls-2{fill:#094067;}</style></defs><title>MockUp_Proyecto DevDes icons</title><g class="cls-1"><path class="cls-2" d="M89.71,58.12H72.38V40.79a2.88,2.88,0,1,0-5.76,0v0h0V58.12H49.29a2.88,2.88,0,1,0,0,5.76H66.62V81.21a2.88,2.88,0,0,0,5.76,0v0h0V63.88H89.71a2.88,2.88,0,1,0,0-5.76Z"/><path class="cls-2" d="M69.5,20.67A40.33,40.33,0,1,0,109.83,61,40.37,40.37,0,0,0,69.5,20.67Zm0,74.91A34.58,34.58,0,1,1,104.07,61,34.53,34.53,0,0,1,69.5,95.58Z"/></g></svg>