<svg id="Capa_1" data-name="Capa 1" xmlns="http://www.w3.org/2000/svg" viewBox="0 0 150 150"><defs><style>.cls-1{fill:#094067;}</style></defs><title>añadir proyecto</title><path class="cls-1" d="M75.31,40.69C70.53,42.3,67.54,45,64.77,48,55.4,58.19,49.25,70.33,43.68,82.79c-2.86,6.39-5.46,12.9-8.24,19.49C31,96.45,32,74.18,36.92,66.1c2,1.21,1.08,4.05,3.18,5.47,1.7-3.89,1.83-8,2.76-12A40.33,40.33,0,0,1,52,41.29c2.2-2.46,4.23-4.48,6.09,1.19,3.39-10.49,11-15.09,20-18.19,6.6-2.27,13.27-4.38,20.45-8.23-2.26,8.05-2.15,15.49-4.63,22.42-2.61,7.28-9.61,10.36-15.66,15.16H84c-4.4,6.12-5.2,14.85-14.28,16.83.46.66.56,1,.76,1.06,5.72,2.13,5.7,2.11,2,7.08a26.33,26.33,0,0,0-2.75,4.22c-3.47,7.25-9,12.14-16.32,15.39a20.68,20.68,0,0,0-10.92,10.59,88.22,88.22,0,0,1-8.55,14.09C43.89,93.9,53.28,64.61,75.31,40.69Z"/><path class="cls-1" d="M92.92,126.45c-1.34-.21-3.65-.1-5.54-.94-8-3.49-15.61-1.44-23.28.85S48.87,131,41.26,133.3c-3.78,1.17-7.28.85-10.32-1.84-1.16-1-2.33-2.26-1.09-3.94s2.63-1.48,3.95-.24c2.62,2.45,5.37,1.36,8.18.54,10.86-3.16,21.43-7.3,32.7-9a21.22,21.22,0,0,1,11.24,1c6.26,2.44,12.16,2.06,17.62-2.55,3.48-3,7.27-5.68,11.82-6.89,2.17-.57,4.72-.84,5.26,2,.47,2.43-1.91,2.57-3.74,3-4.94,1.16-8.49,4.75-12.53,7.46C101.09,125,97.73,126.63,92.92,126.45Z"/></svg>