<svg id="Capa_1" data-name="Capa 1" xmlns="http://www.w3.org/2000/svg" viewBox="0 0 139 122"><defs><style>.cls-1{fill:#094067;}</style></defs><title>MockUp_Proyecto DevDes icons</title><path class="cls-1" d="M65.4,105.8A45,45,0,1,0,24.7,65.1,45,45,0,0,0,65.4,105.8Zm.1-81.6A37,37,0,1,1,32.7,57,37.08,37.08,0,0,1,65.5,24.2Z"/><path class="cls-1" d="M50.5,38.8V83.2a2,2,0,0,0,2,2h4a2,2,0,0,0,2-2V38.8a2,2,0,0,0-2-2h-4A2,2,0,0,0,50.5,38.8Z"/><path class="cls-1" d="M88.5,39V83c0,2.2-1.4,2.8-3,1.4L62,64a3.87,3.87,0,0,1,0-6L85.5,37.6C87.1,36.2,88.5,36.8,88.5,39Z"/></svg>