<svg id="Capa_1" data-name="Capa 1" xmlns="http://www.w3.org/2000/svg" viewBox="0 0 139 122"><defs><style>.cls-1{opacity:0.75;}.cls-2{fill:#094067;}</style></defs><title>MockUp_Proyecto DevDes</title><g class="cls-1"><path class="cls-2" d="M74,6.78a56,56,0,1,0,56,56A56,56,0,0,0,74,6.78ZM95.81,77.16a5.2,5.2,0,0,1,0,7.31A5.09,5.09,0,0,1,92.16,86a4.91,4.91,0,0,1-3.66-1.53L74,70.09,59.62,84.59A5.09,5.09,0,0,1,56,86.12a4.9,4.9,0,0,1-3.65-1.53,5.18,5.18,0,0,1,0-7.31l14.38-14.5L52.19,48.39a5.17,5.17,0,0,1,7.31-7.3L74,55.47,88.38,41.09a5.17,5.17,0,1,1,7.31,7.3L81.31,62.78Z"/></g></svg>