<svg id="Capa_1" data-name="Capa 1" xmlns="http://www.w3.org/2000/svg" viewBox="0 0 139 122"><defs><style>.cls-1{fill:#094067;opacity:0.75;}</style></defs><title>MockUp_Proyecto DevDes icons</title><path class="cls-1" d="M76.62,34.4,41.78,69.24A3.22,3.22,0,0,0,40.86,71l-2.3,16.28a4,4,0,0,0,3.35,4.5,4.9,4.9,0,0,0,.54,0,4.17,4.17,0,0,0,.5,0l16.57-2.06a3.15,3.15,0,0,0,1.87-1L96.23,54A13.87,13.87,0,1,0,77,34ZM57.68,83.56l-12.4,1.58L47,73,76.15,43.84,86.79,54.48ZM94,44.2a7.51,7.51,0,0,1-2.2,5.32l-.48.48L80.63,39.36l.47-.47A7.53,7.53,0,0,1,94,44.2Z"/></svg>