<svg id="Capa_1" data-name="Capa 1" xmlns="http://www.w3.org/2000/svg" viewBox="0 0 139 122"><defs><style>.cls-1{fill:#094067;opacity:0.75;}</style></defs><title>MockUp_Proyecto DevDes</title><path class="cls-1" d="M81.8,15.07,21.64,75.23a5.45,5.45,0,0,0-1.58,3.09l-4,28.11a6.85,6.85,0,0,0,5.79,7.76,7.28,7.28,0,0,0,.93.07,6.31,6.31,0,0,0,.87,0l28.61-3.55a5.44,5.44,0,0,0,3.23-1.64l60.16-60.14A23.95,23.95,0,1,0,82.45,14.42ZM49.09,100l-21.41,2.73,3-21L81,31.38,99.35,49.75Zm62.69-68a12.92,12.92,0,0,1-3.8,9.19l-.82.82L88.71,23.64l.83-.82A13,13,0,0,1,111.78,32Z"/></svg>