<svg id="Capa_1" data-name="Capa 1" xmlns="http://www.w3.org/2000/svg" viewBox="0 0 990 468"><defs><style>.cls-1{fill:#030303;}.cls-2{fill:#b2b2b2;}.cls-3{fill:#b3b3b3;}.cls-4{fill:#fcfcfc;}.cls-5{fill:#f9eb21;}.cls-6{fill:#45c8e6;}.cls-7{fill:#cacaca;}.cls-8{fill:#5c5c5c;}.cls-9{fill:#fff;}.cls-10{font-size:106.55px;}.cls-10,.cls-11{font-family:Poppins-ExtraBold, Poppins;font-weight:800;}.cls-11{font-size:254.16px;}.cls-12{font-size:39.21px;font-family:Poppins-ExtraLight, Poppins;font-weight:200;}</style></defs><title>Error404text</title><path class="cls-1" d="M381.77,253.53c-3.1-24-7.72-47.64-16.73-70.21a17.22,17.22,0,0,1-.92-9.64c5.17-31.71-2.42-60.14-22.66-85C325,68.44,303.54,55.5,279.19,47.06c-32.11-11.14-65.11-13.31-98.58-8.71-30.92,4.25-59.52,14.8-83.48,35.22-38.76,33-55.95,74.36-45.58,125.42a10,10,0,0,1-.63,5.3C41,236,36.51,268.53,36.15,301.68a271.28,271.28,0,0,0,2,34.9c2.54,20.59,7,40.67,16.86,59.18,8.39,15.79,20,28,37.44,34a166.9,166.9,0,0,0,69.35,8.55c10.78-.93,21.58-1.73,32.39-2.3,20.91-1.1,41.54,2.17,62.22,4.45,19.69,2.18,39.05,1.73,58.42-3.49,25.9-7,44.24-22.11,54.92-46.69,8.45-19.47,12.34-40,14.12-61A355.6,355.6,0,0,0,381.77,253.53Zm-8,78.5c-1.64,18.81-5.22,37.24-13,54.61-5.17,11.54-12,21.91-22.41,29.46-10.17,7.4-22.07,10.73-34,13.73-14.74,3.7-29.69,3.17-44.68,1.66-21.51-2.15-42.95-5.65-64.69-4.52-11.46.59-22.91,1.55-34.36,2.51-23.76,2-46.83-.84-69.12-9.46C81.69,416.21,74.3,409.4,68.33,401c-10.5-14.85-15.9-31.76-19.23-49.37-8.22-43.44-5.24-86.5,5.08-129.21a223.46,223.46,0,0,1,8.37-27.81c1.79-4.65,1.73-4.71,5.54-2.59l.09.05V192c-.06-22.83,7.69-42.53,25.15-57.39s37.94-16.67,59.36-11c18.36,4.84,33.46,15.2,46.54,28.75,2.27,2.36,1.38,2.93-1.08,3.66a48.41,48.41,0,0,0-17.53,9.24,33.45,33.45,0,0,0-6.67,7.38c-7.07,10.72-4.94,22.77,5.34,30.44a35,35,0,0,0,16,6.61c17,2.5,32.78-.76,46.74-11.22a32.28,32.28,0,0,0,8.38-9.16c6.12-10.13,4.07-21.23-5.39-28.38-7.61-5.75-16.47-7.67-25.8-7.95-4.28-.12-4.38-.16-2.52-3.66,12.76-24,31.57-39.79,59.36-42.54,23.23-2.3,41.84,7.19,56.82,24.38,12.39,14.21,19.62,31.11,24.71,49.06,1.15,4.07-.72,7.89-.64,11.85,4.08,7.88,5.89,16.5,7.89,25C373.72,254.89,377.19,293.22,373.8,332ZM219.22,162.65c6.42-.07,12.6.91,18.24,4.18,8.42,4.9,9.85,12.63,3.41,19.94-7.86,8.92-18.49,12-29.82,13.07a40.44,40.44,0,0,1-21-3.24c-10.53-4.82-12.12-13.78-3.72-21.77C195.54,166.12,206.9,163,219.22,162.65Z"/><path class="cls-2" d="M68.1,191.92a.13.13,0,0,0,0,.06l.09.05Z"/><path class="cls-3" d="M364.83,217c-2-8.51-3.81-17.13-7.89-25-6.58,6.2-13.44,12-21.62,16.08-4,2-7.82,4.18-12.25,5-.64,10.25-3.31,13.76-12.19,16-5.47,1.4-11.75-1.53-15.8-7.35-10.25,1.66-20.46,3.92-30.78,4.78-7.22.6-14.22,2.54-21.58,2.49-7.56,0-15.13,1.25-22.7,1.95l-2.06.12L188,233l-2,0c-8-.33-16.08.32-24.06-1-.09.91-.19,1.81-.28,2.72.7,1.68,0,3.41.2,5.11l-.81,6.09.54,2.91c-.94,8.77-.44,17.58-.77,26.37-.23,6-1.4,7.07-7.21,5.8-7-1.53-14-3-20.89-4.76-2.54-.64-4-.15-5.18,2.2a66.52,66.52,0,0,1-4.7,7.63c-2.15,3.06-5,3.74-7.73,2.08s-3.46-4.85-1.59-8.25c.24-.43.54-.83.8-1.26,3.79-6,3.77-5.95-2.71-8.2-2.8-1-5.79-1.52-8.19-3.43a15,15,0,0,1-6.5-2.89c-3.27-2.11-6.76-4-7.94-8.16h-.44l-.44,0-.33-5.86-.66-3.2c-4.49-8-4.87-8.13-12-2.75-.49,1.55-2.36,1.54-3.11,2.78L71,248v0s0,0,0-.06c-2.78.57-4,3.59-6.78,4.24a2.27,2.27,0,0,0-.21.73c-2.29.43-4.23,0-5.25-2.32s.45-4,2.12-5.36c1-.79,1.82-1.86,3.19-2.08a6,6,0,0,1,0-.94A37.7,37.7,0,0,0,67.39,240c2.18-1.75,5.7-3.39,6-5.48.37-2.35-3.58-3.79-5.43-5.84A35,35,0,0,0,65.05,226c-3-2-2.65-4.5-1-7.16A36.18,36.18,0,0,0,74.12,212l2-1,5.25-3.74c-4.77-2.08-7.5-6.21-10.32-10.27-.72-1-.71-2.61-2.21-3.09-.21-.66-1-1.12-.75-2-3.81-2.12-3.75-2.06-5.54,2.59a223.46,223.46,0,0,0-8.37,27.81c-10.32,42.71-13.3,85.77-5.08,129.21,3.33,17.61,8.73,34.52,19.23,49.37,6,8.44,13.36,15.25,23.19,19.06,22.29,8.62,45.36,11.45,69.12,9.46,11.45-1,22.9-1.92,34.36-2.51,21.74-1.13,43.18,2.37,64.69,4.52,15,1.51,29.94,2,44.68-1.66,11.95-3,23.85-6.33,34-13.73,10.41-7.55,17.24-17.92,22.41-29.46,7.78-17.37,11.36-35.8,13-54.61C377.19,293.22,373.72,254.89,364.83,217ZM230,254h0Zm88,1h0v0Zm32,65.79a5.48,5.48,0,0,1-1.12,1c-16.85,10.59-34.11,20.22-54.31,22.79a36.75,36.75,0,0,1-16.29-1.38c-12.92-4.22-18.43-16.06-13.3-28.62a33.85,33.85,0,0,1,5.23-8.46q18.9-23.26,37.81-46.52c.63-.76,1.37-1.43,2.06-2.15a5.88,5.88,0,0,1,4.75,1.06c1.47,2.83.23,4.95-1.54,7.19q-16.85,21.39-33.54,42.9c-2.35,3-4.89,5.91-6.23,9.58-2.78,7.61.34,13.65,8.14,15.8,6,1.65,11.91.79,17.78-.61,13.62-3.26,25.72-9.86,37.46-17.22,2.25-1.42,4.42-3,6.78-4.21,2.81-1.45,5.27-.43,7,2S351.93,318.65,350,320.77Z"/><path class="cls-4" d="M68.1,191.92l.08.11V192Zm289.48-11.75c-5.09-17.95-12.32-34.85-24.71-49.06-15-17.19-33.59-26.68-56.82-24.38-27.79,2.75-46.6,18.57-59.36,42.54-1.86,3.5-1.76,3.54,2.52,3.66,9.33.28,18.19,2.2,25.8,7.95,9.46,7.15,11.51,18.25,5.39,28.38a32.28,32.28,0,0,1-8.38,9.16c-14,10.46-29.72,13.72-46.74,11.22a35,35,0,0,1-16-6.61c-10.28-7.67-12.41-19.72-5.34-30.44a33.45,33.45,0,0,1,6.67-7.38A48.41,48.41,0,0,1,198.15,156c2.46-.73,3.35-1.3,1.08-3.66-13.08-13.55-28.18-23.91-46.54-28.75-21.42-5.65-42-3.79-59.36,11S68.12,169.14,68.18,192c.79.44.7,1.21.66,2,1.5.48,1.49,2.05,2.21,3.09,2.82,4.06,5.55,8.19,10.32,10.27Q97.24,197,113.11,186.64c.63-.42,1.71-.56,1.56-1.58,0-.21-1.19-.27-1.84-.36-1.64-.23-3.31-.35-4.94-.66-2.29-.43-3.58-2-3.29-4.23s2-3.45,4.31-3.14c11.34,1.53,21.21-2.73,30.82-7.88a21.86,21.86,0,0,0,8.78-7.94c1.35-2.26,3.15-3.63,5.72-1.88s1.88,4,.54,6.13a30,30,0,0,1-8.8,8.72c-1.69,1.16-1.64,1.54.38,2.33,11.33,4.42,15.22,13.77,15.58,24.95.34,10.3.06,20.62,0,30.93,8,1.28,16,.63,24.06,1l2,0L218,231.13,220,231c7.57-.7,15.14-2,22.7-1.95,7.36.05,14.36-1.89,21.58-2.49,10.32-.86,20.53-3.12,30.78-4.78-3.74-10-1.56-19.58,2.32-29a100.45,100.45,0,0,1,8.41-15.84c1-1.61,2-2.8,3.48-.28,6.73,11.36,12.92,22.91,13.78,36.48,4.43-.84,8.28-3,12.25-5,8.18-4.08,15-9.88,21.62-16.08C356.86,188.06,358.73,184.24,357.58,180.17ZM312,172.55a54.07,54.07,0,0,1-5.81.7c-13-1.18-24.8-5.08-35.06-13.09a23.47,23.47,0,0,1-6.48-7.49c-1.09-2.07-.9-4,1.08-5.24s3.74-.69,5.21,1.14c10.19,12.68,23.9,17.05,39.59,16.57,2.25-.07,4,.31,4.62,2.68C315.82,170.44,314.45,172,312,172.55Z"/><path class="cls-5" d="M219.22,162.65c6.42-.07,12.6.91,18.24,4.18,8.42,4.9,9.85,12.63,3.41,19.94-7.86,8.92-18.49,12-29.82,13.07a40.44,40.44,0,0,1-21-3.24c-10.53-4.82-12.12-13.78-3.72-21.77C195.54,166.12,206.9,163,219.22,162.65Z"/><path class="cls-1" d="M350,320.77a5.48,5.48,0,0,1-1.12,1c-16.85,10.59-34.11,20.22-54.31,22.79a36.75,36.75,0,0,1-16.29-1.38c-12.92-4.22-18.43-16.06-13.3-28.62a33.85,33.85,0,0,1,5.23-8.46q18.9-23.26,37.81-46.52c.63-.76,1.37-1.43,2.06-2.15a5.88,5.88,0,0,1,4.75,1.06c1.47,2.83.23,4.95-1.54,7.19q-16.85,21.39-33.54,42.9c-2.35,3-4.89,5.91-6.23,9.58-2.78,7.61.34,13.65,8.14,15.8,6,1.65,11.91.79,17.78-.61,13.62-3.26,25.72-9.86,37.46-17.22,2.25-1.42,4.42-3,6.78-4.21,2.81-1.45,5.27-.43,7,2S351.93,318.65,350,320.77Z"/><path class="cls-6" d="M323.07,213.12c-.64,10.25-3.31,13.76-12.19,16-5.47,1.4-11.75-1.53-15.8-7.35-3.74-10-1.56-19.58,2.32-29a100.45,100.45,0,0,1,8.41-15.84c1-1.61,2-2.8,3.48-.28C316,188,322.21,199.55,323.07,213.12Z"/><path d="M161.7,234.75c.09-.91.19-1.81.28-2.72,0-10.31.29-20.63,0-30.93-.36-11.18-4.25-20.53-15.58-24.95-2-.79-2.07-1.17-.38-2.33a30,30,0,0,0,8.8-8.72c1.34-2.15,2-4.41-.54-6.13s-4.37-.38-5.72,1.88a21.86,21.86,0,0,1-8.78,7.94c-9.61,5.15-19.48,9.41-30.82,7.88-2.35-.31-4,.82-4.31,3.14s1,3.8,3.29,4.23c1.63.31,3.3.43,4.94.66.65.09,1.81.15,1.84.36.15,1-.93,1.16-1.56,1.58Q97.26,197,81.37,207.3L76.12,211l-2,1a36.18,36.18,0,0,1-10.06,6.86c-1.66,2.66-2,5.14,1,7.16A35,35,0,0,1,68,228.67c1.85,2.05,5.8,3.49,5.43,5.84-.33,2.09-3.85,3.73-6,5.48a37.7,37.7,0,0,1-3.27,2.16,6,6,0,0,0,0,.94c-1.37.22-2.21,1.29-3.19,2.08-1.67,1.36-3.2,2.89-2.12,5.36s3,2.75,5.25,2.32a2.27,2.27,0,0,1,.21-.73c2.74-.65,4-3.67,6.78-4.24a1.18,1.18,0,0,1,1.07-.93c.75-1.24,2.62-1.23,3.11-2.78,7.09-5.38,7.47-5.3,12,2.75l.66,3.2.33,5.86.44,0H89c1.18,4.15,4.67,6.05,7.94,8.16a15,15,0,0,0,6.5,2.89c2.4,1.91,5.39,2.46,8.19,3.43,6.48,2.25,6.5,2.19,2.71,8.2-.26.43-.56.83-.8,1.26-1.87,3.4-1.27,6.5,1.59,8.25s5.58,1,7.73-2.08a66.52,66.52,0,0,0,4.7-7.63c1.2-2.35,2.64-2.84,5.18-2.2,6.92,1.75,13.91,3.23,20.89,4.76,5.81,1.27,7,.25,7.21-5.8.33-8.79-.17-17.6.77-26.37l-.54-2.91.81-6.09C161.7,238.16,162.4,236.43,161.7,234.75Zm-7.37-8.86c-.3,6.71-1,13.41-.23,20.13-.26,8-.64,15.93-.71,23.89,0,2.82-.81,3.27-3.46,2.7-5.72-1.23-11.42-2.54-17.09-4q-3.26-.81-6.49-1.67c-6.07-1.62-12.11-3.38-18.1-5.32a1.23,1.23,0,0,1,0,.26h-.1a.78.78,0,0,1-.22,0l-.14,0a1.37,1.37,0,0,1-.71-.78c-3.37-2-7.07-3.45-10.17-5.92-1.27-1.61-1.47-3.47-1.57-5.46-.17-3.2-.54-6.43-3.32-8.67-2.8-5.63-8-8.64-12.92-12a9.73,9.73,0,0,0-1.14-1.52c-5.3-4.79-5.28-4.74.37-8.72,2.66-1.87,5.51-3.5,7.76-5.9,4.09-1.56,7.33-4.5,10.92-6.84,9.59-6.27,19.15-12.59,29.06-18.34,1.58-.92,3.16-1.84,4.81-2.62,12.26-5.78,22.16-.29,23.24,13.42.64,8.09.12,16.28.13,24.42C154.23,223.9,154.3,224.9,154.33,225.89Z"/><path class="cls-1" d="M108.25,261.65a1.23,1.23,0,0,1,0,.26h-.1a2,2,0,0,0,.09-.26Z"/><polygon class="cls-7" points="230.02 253.98 230.01 253.99 230.01 253.98 230.02 253.98"/><path class="cls-7" d="M318,255v0Z"/><path class="cls-8" d="M108.23,261.91h-.1a2,2,0,0,0,.09-.26Z"/><path class="cls-1" d="M68.84,193.94c-.21-.66-1-1.12-.75-2a.13.13,0,0,1,0-.06l.08.05C69,192.41,68.88,193.18,68.84,193.94Z"/><path class="cls-7" d="M72.08,247,71,248v0s0,0,0-.06A1.18,1.18,0,0,1,72.08,247Z"/><path class="cls-1" d="M306.21,173.25c-13-1.18-24.8-5.08-35.06-13.09a23.47,23.47,0,0,1-6.48-7.49c-1.09-2.07-.9-4,1.08-5.24s3.74-.69,5.21,1.14c10.19,12.68,23.9,17.05,39.59,16.57,2.25-.07,4,.31,4.62,2.68.65,2.62-.72,4.2-3.15,4.73A54.07,54.07,0,0,1,306.21,173.25Z"/><path class="cls-4" d="M108.22,261.64v.27a1.23,1.23,0,0,0,0-.26Z"/><path class="cls-9" d="M154.23,222.9c0-8.14.51-16.33-.13-24.42-1.08-13.71-11-19.2-23.24-13.42-1.65.78-3.23,1.7-4.81,2.62C116.14,193.43,106.58,199.75,97,206c-3.59,2.34-6.83,5.28-10.92,6.84-2.25,2.4-5.1,4-7.76,5.9-5.65,4-5.67,3.93-.37,8.72A9.73,9.73,0,0,1,79.08,229C84,232.36,89.2,235.37,92,241c2.78,2.24,3.15,5.47,3.32,8.67.1,2,.3,3.85,1.57,5.46,3.1,2.47,6.8,3.91,10.17,5.92.54,0,1.19-.13,1.19.6,6,1.94,12,3.7,18.1,5.32q3.24.86,6.49,1.67c5.67,1.43,11.37,2.74,17.09,4,2.65.57,3.44.12,3.46-2.7.07-8,.45-15.92.71-23.89-.81-6.72-.07-13.42.23-20.13C154.3,224.9,154.23,223.9,154.23,222.9ZM127.9,202.46c-2.42,3.11-4.74,6.28-7.11,9.43l-1.3.58a43,43,0,0,1-11,11.89c-.23.52-.45,1-.67,1.55-2.62,1.7-5.21,3.43-7.85,5.09-1.79,1.13-3.58,1.13-4.63-.9-1-1.83.09-3.2,1.77-4,3.33-1.56,5.79-4.31,8.83-6.28l8-8.93L123.42,199c1.33-1.68,2.89-3.13,4.94-1.31C130.13,199.25,129.11,200.9,127.9,202.46Z"/><polygon class="cls-2" points="230.02 253.98 230.01 253.99 230.01 253.98 230.02 253.98"/><path class="cls-2" d="M318,255v0Z"/><path class="cls-1" d="M108.25,261.65a1.23,1.23,0,0,1,0,.26h-.1a.78.78,0,0,1-.22,0l-.14,0a1.37,1.37,0,0,1-.71-.78C107.6,261.06,108.25,260.92,108.25,261.65Z"/><path d="M127.9,202.46c-2.42,3.11-4.74,6.28-7.11,9.43l-1.3.58a43,43,0,0,1-11,11.89c-.23.52-.45,1-.67,1.55-2.62,1.7-5.21,3.43-7.85,5.09-1.79,1.13-3.58,1.13-4.63-.9-1-1.83.09-3.2,1.77-4,3.33-1.56,5.79-4.31,8.83-6.28l8-8.93L123.42,199c1.33-1.68,2.89-3.13,4.94-1.31C130.13,199.25,129.11,200.9,127.9,202.46Z"/><text class="cls-10" transform="translate(440.34 127.1)">Oops!</text><text class="cls-11" transform="translate(440.34 358.18)">404</text><text class="cls-12" transform="translate(440.34 421.5)">PAGE NOT FOUND</text></svg>