<svg id="Capa_1" data-name="Capa 1" xmlns="http://www.w3.org/2000/svg" viewBox="0 0 2706 2694"><defs><style>.cls-1{opacity:0.3;}.cls-2{fill:#094067;}.cls-3{opacity:0.4;}.cls-4{fill:#7390a5;}.cls-5{fill:#90b4ce;}</style></defs><title>Fondo Web</title><g class="cls-1"><path class="cls-2" d="M1705.33,1508.87c106.69,174,129.39,412,22.82,599.41S1373.13,2404,1189.76,2316c-86.71-41.57-153.36-120-246.08-147.43-174.87-51.67-365.89,94.82-548.51,73.33-175.94-20.7-294.18-202.41-292.5-383.33s99-354.39,220.33-494.7c178.28-206.15,446.82-367.29,699.81-312,213.19,46.6,552.74,283.72,682.52,456.95"/></g><g class="cls-3"><path class="cls-4" d="M1450.38,984.07c-95.39-126.27-130.77-308.22-62.6-460.81s251.75-254.81,399.84-200.73c70,25.57,127.34,81.1,201,95.28,138.81,26.75,275.21-100.63,417.73-97.76,137.32,2.77,242.2,134.11,254.48,273.84S2611,874.77,2527.91,992.15c-122.09,172.45-317.21,316.95-516.57,293.27-168-20-447.81-177.43-561-301.35"/></g><g class="cls-1"><path class="cls-5" d="M559.28,287.94C591,210,664.52,144.23,752.83,133.82s185,45.66,200.64,128.07c7.38,39-2.38,80.29,11.18,117.79C990.23,450.41,1085.6,478.05,1123.1,544c36.14,63.51,4.68,147.21-55.83,190.88S925.34,788.61,849.06,782.6C737,773.77,617.81,724,574.34,626.39c-36.64-82.21-40.88-253-15.06-338.45"/></g></svg>