<svg id="Capa_1" data-name="Capa 1" xmlns="http://www.w3.org/2000/svg" viewBox="0 0 1264 1221"><defs><style>.cls-1{fill:#7caaff;}.cls-2{fill:#ff7180;}.cls-3{fill:#fac480;}.cls-4{fill:#ff947e;}.cls-5{fill:#241352;}.cls-6{fill:#ffafa6;}.cls-7{fill:#002c68;}.cls-11,.cls-8{fill:#094067;}.cls-16,.cls-9{fill:#fff;}.cls-9{opacity:0.41;}.cls-10{fill:#678899;}.cls-11{opacity:0.3;}.cls-12{fill:#ffbb7a;}.cls-13{fill:#6f35a4;}.cls-14{fill:#7e2e83;}.cls-15{fill:#efe6f5;}</style></defs><title>MockUp_Proyecto DevDes Home pc</title><path class="cls-1" d="M507.54,511.3c-10.72,10.31-14.8,26.34-4.57,38.71,9.63,11.65,28.27,14.12,40.3,4.83,29-22.41-1.24-63.77-32.57-55.21-5.8,1.59-4.36,9.86,1.38,10.19,9.16.52,19,.87,26.29,7.29,7.86,6.9,8,18.56,1.58,26.5-17.08,21-46.75-9.93-28.81-28.71a2.55,2.55,0,0,0-3.6-3.6Z"/><path class="cls-2" d="M806.65,546.78c3.93,14.6,8.26,29,12.76,43.48,1.08,3.47,4.37,4.56,7.36,2.54,11.73-8,23.47-15.81,34.59-24.64,2.14-1.7,1.67-5.12-.44-6.57-13-8.94-30.6-22.13-47.12-22.22-4.2,0-7.14,5.89-2.88,8.35,6.67,3.84,14.65,5.21,21.78,8.17a119.78,119.78,0,0,1,23.61,12.61l.48-7.19c-12.42,7.65-24.12,16.23-35.94,24.77l7,1.4c-5-14.26-10.22-28.42-15.81-42.47-1.18-3-6.21-1.34-5.37,1.77Z"/><path class="cls-3" d="M889,624.13c17.44-8.36,35.3-18,51-29.24,5.78-4.14.09-12.23-6-9-16.8,8.8-33.18,20.17-48.17,31.77-3,2.33-.8,8.4,3.15,6.51Z"/><path class="cls-4" d="M246.38,677.44c-3.65-19-8.4-38.71-15.31-56.77-2.54-6.64-11.8-3.2-10.26,3.5,4.24,18.49,11.07,37.22,18.48,54.67,1.48,3.5,7.92,2.9,7.09-1.4Z"/><path class="cls-5" d="M301.29,509.3l-1-.87c-4.32-3.82-11.41-4.57-15.61,0a11.3,11.3,0,0,0,0,15.61l.87,1c3.86,4.36,11.83,4.24,15.72,0s4.65-11.61,0-15.73Z"/><path class="cls-2" d="M766.3,998.83s-183.37,42.66-257-31L535.64,791.9c8-50.57,3.23-147.87,42-182.39a66.59,66.59,0,0,1,14.7-10c27.17-13.12,75.5-20.2,121.91-20.39,56.37-.21,114.39,42.42,129.19,96.81l-61,142.72Z"/><path class="cls-6" d="M748.17,697.85s82.14,158.22,41.35,166.64c-134.17,27.72-212,50.45-212,50.45l-6.84,52.11c2,7.88,271.46,1.06,303.37-35.14,22.54-25.56,52.49-84.63-11.23-212.49L843.4,675.93Z"/><path class="cls-6" d="M593.91,616.35,389.33,695.56l-6.41-107.33-43.8-17S275.61,743.56,355,775.64,524,748.44,524,748.44Z"/><path class="cls-2" d="M619.22,590c-71.4,22.76-114,49.42-214.52,91.35L456.32,796.5l89-28.56Z"/><polyline class="cls-2" points="735.87 675.93 787.76 796.5 904.79 775.13 825.95 639.34 732.59 675.93"/><path class="cls-7" d="M674.63,758.13c24.93-1.39,49.54-.31,74.45,0,2.17,0,2-3,0-3.29-24.54-2.94-49.89-1.76-74.45.35-1.85.16-1.9,3,0,2.92Z"/><path class="cls-7" d="M786.28,618.29c-84.22,7.6-26.62,131.77-5,169.36,1.21,2.1,4.43.22,3.24-1.89-21.45-38-78.86-153.53,2.08-165.42,1.15-.17.89-2.16-.28-2.05Z"/><path class="cls-7" d="M552.88,689.27A697.55,697.55,0,0,0,533,816.21c-.11,1.76,2.86,2.21,3.12.42,6-42.34,12.08-84.55,18.87-126.78.22-1.35-1.75-2-2.09-.58Z"/><path class="cls-5" d="M750,459.91l3.86-53.34c14-3.94,21.24-21.82,15.66-35.23s-21.41-20.93-35.79-18.88c9.07-6.17,8.38-20.92.93-29s-19.11-10.67-30.08-11.09-22.06.9-32.85-1.1c-9.56-1.78-18.93-6.15-28.57-4.94s-18.87,12.07-13.67,20.29c-13.92-2-29-3.9-41.32,2.81s-18.57,25.8-7.95,35c-7,3.58-8.77,13.74-4.82,20.56s12,10.39,19.88,11,15.64-1.43,23.27-3.4"/><path class="cls-6" d="M747.72,425.33l-2.81,37s31.43,4.24,22.47,32.9-30.46,16.12-30.46,16.12-5.37,73.46-80.61,50.17c-59.89-18.54-56.22-96.08-48.62-162.19A44.25,44.25,0,0,1,660.16,361l45.24,8.81A52.52,52.52,0,0,1,747.72,425.33Z"/><path class="cls-6" d="M744.91,493,724.64,601.08A43.38,43.38,0,0,1,672,635.27h0a43.37,43.37,0,0,1-32.63-49.77l11-62Z"/><path class="cls-5" d="M661.68,494.18c.08,0,.06.31-.14.81a3.11,3.11,0,0,1-1.78,1.61,4.26,4.26,0,0,1-3.78-.7,6.44,6.44,0,0,1-1.69-1.72,10.9,10.9,0,0,1-1.1-2.37c-1.16-3.45-1-7.67-.73-12.07s.48-9.31.8-14.42c.64-10.23,1.37-19.48,2-26.17s1.24-10.81,1.6-10.79.42,4.19.24,10.91-.62,16-1.26,26.21c-.32,5.12-.66,10-1,14.41s-.7,8.35.1,11.39a9.78,9.78,0,0,0,.75,2,5.22,5.22,0,0,0,1.16,1.43,3.26,3.26,0,0,0,2.63.88,3,3,0,0,0,1.61-.92C661.41,494.35,661.6,494.14,661.68,494.18Z"/><path class="cls-5" d="M637.27,553.93c.26-.35,3.73,2.21,9.93,5.07a63.65,63.65,0,0,0,51.58,1.08c6.32-2.59,9.89-5,10.13-4.64s-3,3.21-9.38,6.32a58.39,58.39,0,0,1-53.15-1.12C640.19,557.26,637.08,554.15,637.27,553.93Z"/><path class="cls-5" d="M652,509.35c.32-.28,1.89,1.42,5.07,2.94a19.18,19.18,0,0,0,5.84,1.71,16.26,16.26,0,0,0,13.54-4.36,18.87,18.87,0,0,0,3.75-4.79c1.7-3.08,2-5.38,2.41-5.33.16,0,.3.6.27,1.67a13.46,13.46,0,0,1-1,4.45,17.41,17.41,0,0,1-3.73,5.72,17.54,17.54,0,0,1-22,2.54,13.74,13.74,0,0,1-3.42-3C652.08,510,651.85,509.46,652,509.35Z"/><path class="cls-5" d="M747.28,498.78a9.19,9.19,0,0,1,1.21-.19,10.59,10.59,0,0,0,3.16-.93,5.82,5.82,0,0,0,3.13-3.46,4.49,4.49,0,0,0,.06-2.74,3.15,3.15,0,0,0-1.94-2,3,3,0,0,0-3.66.93l-.44-.23c1.33-3,2.5-5.51,3.35-7.31.39-.83.73-1.53,1-2.11a3.75,3.75,0,0,1,.41-.73,2.82,2.82,0,0,1-.26.8c-.24.6-.53,1.31-.88,2.16-.76,1.84-1.87,4.42-3.17,7.39l-.44-.23a3,3,0,0,1,1.87-1.32,4,4,0,0,1,2.4.16,3.64,3.64,0,0,1,2.23,2.38,4.91,4.91,0,0,1-.08,3,5.79,5.79,0,0,1-1.46,2.32,6.94,6.94,0,0,1-2,1.32,10,10,0,0,1-3.29.81A4.26,4.26,0,0,1,747.28,498.78Z"/><path class="cls-5" d="M689.34,425.93c-.09-.33.73-.92,2.27-1.31a12.91,12.91,0,0,1,6.12.14,12.64,12.64,0,0,1,5.39,2.89c1.15,1.09,1.58,2,1.34,2.25-.53.53-3.35-1.61-7.39-2.62S689.54,426.65,689.34,425.93Z"/><path class="cls-5" d="M624.29,415.62c-.13-.32.7-1,2.3-1.63a15.26,15.26,0,0,1,6.57-.81,15.42,15.42,0,0,1,6.34,1.94c1.47.87,2.16,1.71,2,2-.39.64-3.93-1-8.54-1.35S624.57,416.32,624.29,415.62Z"/><path class="cls-5" d="M744.91,462.29c-21-20.47-27.17-54.59-32.87-83.36a73.56,73.56,0,0,1-68.63,8.94A110.77,110.77,0,0,1,619,409.23c-2.6,1.66-5.68,3.28-8.64,2.39-3.52-1.06-5.09-5.1-5.93-8.69-2.69-11.47-2.78-23.75,1.22-34.84S618,347.27,629,343c11.75-4.55,25-2.57,37.16.59a206.33,206.33,0,0,1,52.45,21.67c16.07,9.42,31.51,21.87,38.33,39.21s6.78,51-9.65,59.78"/><path class="cls-5" d="M695,456c-.71-.06-1.11-2.64-.89-5.77s1-5.63,1.7-5.58,1.12,2.63.9,5.77S695.73,456.08,695,456Z"/><path class="cls-5" d="M634.6,448.31c-.72-.05-1.12-2.63-.9-5.76s1-5.63,1.71-5.58,1.11,2.63.89,5.76S635.31,448.36,634.6,448.31Z"/><path class="cls-6" d="M336.9,574.87s9.09-55.81,19.94-55.21,32.58,0,32.58,0,1.81-53.08,7.84-44.63,7.93,79.85-15.34,114.12Z"/><path class="cls-6" d="M577.47,914.94S480.12,932,482,944.61,490.76,970,490.76,970l86.71-2Z"/><polygon class="cls-8" points="683.13 973.04 682.39 959.57 481.88 947.3 414.64 767.43 194.56 779.53 269.64 974.04 683.13 973.04"/><path class="cls-9" d="M315.9,865.18A16.31,16.31,0,1,0,331.29,848,16.31,16.31,0,0,0,315.9,865.18Z"/><path class="cls-9" d="M309.38,865.53a22.84,22.84,0,1,0,21.56-24.06A22.85,22.85,0,0,0,309.38,865.53Z"/><path class="cls-10" d="M161.89,977l860.7-10.75L1073,992.75S412.26,1174.1,161.89,977Z"/><path class="cls-11" d="M835.15,340.35c-2.61,5,5.91,135.72,5.91,135.72l64.35-5.35-7.51,34.5,31.44-35.45,63-7.28-3.82-126.65Z"/><path class="cls-12" d="M671.7,136.77s-44.34,2.22-45.82,49.51c0,0,.74,25.87,14.78,35.47s13.3,20,13.3,20h36.95s-1.48-13.31,4.44-20.69S716,198.11,713.82,175.2,694.61,134.55,671.7,136.77Z"/><path class="cls-13" d="M653.25,253.31c13.27-.62,26.69.84,39.86.07,1.91-.11,2.55-3.07.48-3.5-12.81-2.65-27.45-1.18-40.34.27-2,.22-2.07,3.26,0,3.16Z"/><path class="cls-13" d="M658.41,264.9c5.29-.31,10.6-.53,15.9-.47s10.67.92,15.91.54c1.92-.14,2.51-3,.47-3.5-10.13-2.65-22.46-1.12-32.7.33-1.76.24-1.34,3.2.42,3.1Z"/><path class="cls-13" d="M662.77,273.48c4.63.32,9.41,1.64,14,1.54a2,2,0,0,0,.53-4c-4.48-1.41-9.92-.92-14.56-.74a1.58,1.58,0,0,0,0,3.16Z"/><path class="cls-13" d="M664.87,241.2c1-13.15-3.41-27.7-5.65-40.6l-3.86,1.63c1.86,3.05,4.94,11.86,9.69,11.54,4.9-.32,6.71-9.06,7.41-12.63h-4.23c.94,4.06,1.06,13.85,7.44,12.93,5.4-.78,9-8.8,10.69-13.19l-4.4-1.22c-3.26,12.86-4.82,29.15-1.55,42.11.58,2.32,4.28,1.86,4.21-.57-.4-13.63-2.31-27,1.74-40.32.87-2.87-3.35-3.89-4.4-1.22-.59,1.52-4.08,10.15-7.38,9-.84-.28-1.94-8-2.12-8.72-.5-2-3.84-2.17-4.23,0-.48,2.64-1.58,9.84-4.7,7.69-1.8-1.25-3.39-5.67-4.53-7.57-1.3-2.18-4.21-.64-3.86,1.63,2,12.9,2.6,27.93,7.78,40,.45,1.05,1.88.39,2-.52Z"/><path class="cls-12" d="M534,223.47c19.78-6.33,39.66-12.42,59.35-19.05.23-.08.13-.44-.1-.37-19.88,6-39.6,12.63-59.38,19-.28.09-.16.54.13.45Z"/><path class="cls-12" d="M558.56,164.6c12.54-.32,25.11-.42,37.64-1,.31,0,.31-.49,0-.48-12.54.06-25.1.63-37.64,1-.33,0-.33.53,0,.52Z"/><path class="cls-12" d="M617.05,145.63c-14.36-12-28.35-24.66-43.12-36.18-.36-.28-.87.19-.52.51,14,12.51,28.87,24,43.27,36.05.25.21.63-.16.37-.38Z"/><path class="cls-12" d="M648.8,125.78a218.2,218.2,0,0,0-12.69-20.9c-.24-.37-.82,0-.59.34a221,221,0,0,0,13.06,20.7.13.13,0,0,0,.22-.14Z"/><path class="cls-12" d="M677.42,117.91c-.24-19.11-.15-38.35-1.13-57.44a.32.32,0,0,0-.64,0c-.2,19.12.68,38.33,1.21,57.44a.28.28,0,0,0,.56,0Z"/><path class="cls-12" d="M699.82,126.21c4.33-7.24,8.68-14.47,12.84-21.81a.34.34,0,0,0-.58-.34c-4.35,7.23-8.51,14.57-12.69,21.9a.25.25,0,0,0,.43.25Z"/><path class="cls-12" d="M717.81,141.31c8.82-4.68,17.5-9.64,26.23-14.5s17.71-9.36,26.1-14.71a.3.3,0,0,0-.3-.52c-9,4.35-17.52,9.69-26.19,14.56s-17.47,9.7-26.08,14.76a.24.24,0,0,0,.24.41Z"/><path class="cls-12" d="M730.9,165.66a37.55,37.55,0,0,0,22.18-4.44c.4-.22,0-.79-.36-.61a47.5,47.5,0,0,1-21.82,4.52c-.35,0-.34.5,0,.53Z"/><path class="cls-12" d="M733.77,199.48c26.71,5.78,53.46,12.36,80.38,17.05.52.09.75-.67.22-.81-26.52-6.58-53.65-11.37-80.43-16.86-.4-.09-.58.53-.17.62Z"/><path class="cls-14" d="M357.61,664.35c.88-5.85.71-11.42,4-16.58,6.53-10.27,15.8-7.69,24.78-3.17,9.14,4.61,17.75,7.37,27.7,3.06,15.52-6.72,22.81-30.14,8-41.15-4.81-3.58-9.53,2.31-8.89,6.82.9,6.31,4,13.24-1.37,18.65-7.22,7.25-15.68,1.16-22.88-2.08-7.78-3.51-16.05-4.29-24.08-1C351,634.45,341,653.18,352,665.84c1.54,1.78,5.24,1,5.61-1.49Z"/><path class="cls-3" d="M561.64,675.68c18.66-5.09,38-11.33,55.44-19.6,6.43-3,2.28-12-4.28-10-18.11,5.64-36.26,13.88-53.09,22.6-3.38,1.75-2.29,8.12,1.93,7Z"/><path class="cls-15" d="M469.07,695.1c3.93,14.6,8.26,29,12.76,43.48,1.08,3.47,4.37,4.56,7.36,2.53,11.73-8,23.47-15.81,34.59-24.63,2.14-1.7,1.67-5.12-.44-6.57-13-8.94-30.6-22.13-47.12-22.22-4.2,0-7.14,5.89-2.88,8.35,6.67,3.84,14.65,5.21,21.78,8.17a119.78,119.78,0,0,1,23.61,12.61l.48-7.19c-12.42,7.65-24.12,16.23-35.94,24.77l7,1.4c-5-14.26-10.22-28.42-15.81-42.47-1.18-3-6.21-1.34-5.37,1.77Z"/><path class="cls-14" d="M494.73,841.26c19.27,1.43,39.54,2,58.79.11,7.07-.7,6.2-10.35-.66-10.62-19-.74-38.82.91-57.61,3.44-3.76.5-4.89,6.74-.52,7.07Z"/><path class="cls-16" d="M870.35,398.8l13.53,47,18.93-3.69L901,432.68l5.37-3.23,10.14,10,32.07-6.25L952.71,421l-9.13-2L955.37,415l-2.56-13.14-10.2.89,14-3.81-3.17-16.3L920.83,389s2.11-22.79-7.52-30.19L906,360.22s2.48,7.15,2.25,11.56-6.63,24.76-6.63,24.76l-10,4.68-2.38-6.63Z"/><polygon class="cls-11" points="207.14 310.76 218.05 441.03 457.95 441.03 471.23 486.87 485.24 436.6 530.95 433.95 509.87 317.27 207.14 310.76"/><path class="cls-16" d="M238.63,357.25a1733.46,1733.46,0,0,1,247.44,4c.43,0,.43-.64,0-.67a1760.27,1760.27,0,0,0-247.44-3.89c-.37,0-.38.61,0,.58Z"/><path class="cls-16" d="M243.45,383a1730.54,1730.54,0,0,1,247.44,4c.43,0,.43-.64,0-.68a1760.27,1760.27,0,0,0-247.44-3.89c-.38,0-.38.61,0,.59Z"/><path class="cls-16" d="M243.9,404.48q35,1.06,70-.08c16.58-.57,33.13-1,49.72-.36,15.4.56,30.78,1.65,46.13,3,.43,0,.43-.64,0-.67-23.12-1.82-46.29-3.46-69.49-3.25-16.62.15-33.23,1.08-49.85,1.27-15.5.17-31-.07-46.47-.47a.3.3,0,0,0,0,.59Z"/></svg>