<svg id="Capa_1" data-name="Capa 1" xmlns="http://www.w3.org/2000/svg" viewBox="0 0 139 122"><defs><style>.cls-1{fill:#094067;}</style></defs><title>like</title><path class="cls-1" d="M34.08,66.16,67.42,97.59a3,3,0,0,0,4.21,0L105,66.16a25.15,25.15,0,0,0,0-35.35,21.62,21.62,0,0,0-15.66-6.3,28.5,28.5,0,0,0-19.59,8.21c-.09,0-.09.1-.19.1s-.09,0-.19-.1c-4.87-4.58-11.17-9.17-17.57-9.17A24.94,24.94,0,0,0,34.08,66.16ZM51.85,29.09c3.63,0,8.41,2.68,13.57,7.55a6,6,0,0,0,4.1,1.62,5.93,5.93,0,0,0,4.21-1.72A23,23,0,0,1,89.3,30,16.09,16.09,0,0,1,101,34.63a19.38,19.38,0,0,1,.1,27.23L69.52,91.66,38.1,62.05a18.92,18.92,0,0,1-5.55-13.56,19.22,19.22,0,0,1,5.64-13.66A18.61,18.61,0,0,1,51.85,29.09Z"/></svg>