<?xml version="1.0"?>
<svg xmlns="http://www.w3.org/2000/svg" xmlns:xlink="http://www.w3.org/1999/xlink" xmlns:svgjs="http://svgjs.com/svgjs" version="1.1" width="512" height="512" x="0" y="0" viewBox="0 0 74 74" style="enable-background:new 0 0 512 512" xml:space="preserve" class=""><g><g xmlns="http://www.w3.org/2000/svg" id="Numbers"><text transform="translate(31.995 -1258.544)" font-size="18" fill="red" font-family="ArialMT, Arial" svgjs:data="{&quot;leading&quot;:&quot;1.3&quot;}">8<tspan x="-5.005" y="124" svgjs:data="{&quot;leading&quot;:&quot;1.3&quot;}">18</tspan><tspan x="-5.005" y="248" svgjs:data="{&quot;leading&quot;:&quot;1.3&quot;}">28</tspan><tspan x="-5.005" y="372" svgjs:data="{&quot;leading&quot;:&quot;1.3&quot;}">38</tspan><tspan x="-5.005" y="496" svgjs:data="{&quot;leading&quot;:&quot;1.3&quot;}">48</tspan><tspan x="-5.005" y="620" svgjs:data="{&quot;leading&quot;:&quot;1.3&quot;}">58</tspan><tspan x="-5.005" y="744" svgjs:data="{&quot;leading&quot;:&quot;1.3&quot;}">68</tspan><tspan x="-5.005" y="868" svgjs:data="{&quot;leading&quot;:&quot;1.3&quot;}">78</tspan><tspan x="-5.005" y="992" svgjs:data="{&quot;leading&quot;:&quot;1.3&quot;}">88</tspan><tspan x="-5.005" y="1116" svgjs:data="{&quot;leading&quot;:&quot;1.3&quot;}">98</tspan><tspan x="-10.011" y="1240" svgjs:data="{&quot;leading&quot;:&quot;1.3&quot;}">108</tspan><tspan x="-9.343" y="1364" letter-spacing="-0.074em" svgjs:data="{&quot;leading&quot;:&quot;1.3&quot;}">1</tspan><tspan x="-0.668" y="1364" svgjs:data="{&quot;leading&quot;:&quot;1.3&quot;}">18</tspan><tspan x="-10.011" y="1488" svgjs:data="{&quot;leading&quot;:&quot;1.3&quot;}">128</tspan><tspan x="-10.011" y="1612" svgjs:data="{&quot;leading&quot;:&quot;1.3&quot;}">138</tspan><tspan x="-10.011" y="1736" svgjs:data="{&quot;leading&quot;:&quot;1.3&quot;}">148</tspan><tspan x="-10.011" y="1860" svgjs:data="{&quot;leading&quot;:&quot;1.3&quot;}">158</tspan><tspan x="-10.011" y="1984" svgjs:data="{&quot;leading&quot;:&quot;1.3&quot;}">168</tspan><tspan x="-10.011" y="2108" svgjs:data="{&quot;leading&quot;:&quot;1.3&quot;}">178</tspan><tspan x="-10.011" y="2232" svgjs:data="{&quot;leading&quot;:&quot;1.3&quot;}">188</tspan><tspan x="-10.011" y="2356" svgjs:data="{&quot;leading&quot;:&quot;1.3&quot;}">198</tspan><tspan x="-10.011" y="2480" svgjs:data="{&quot;leading&quot;:&quot;1.3&quot;}">208</tspan><tspan x="-10.011" y="2604" svgjs:data="{&quot;leading&quot;:&quot;1.3&quot;}">218</tspan><tspan x="-10.011" y="2728" svgjs:data="{&quot;leading&quot;:&quot;1.3&quot;}">228</tspan><tspan x="-10.011" y="2852" svgjs:data="{&quot;leading&quot;:&quot;1.3&quot;}">238</tspan><tspan x="-10.011" y="2976" svgjs:data="{&quot;leading&quot;:&quot;1.3&quot;}">248</tspan><tspan x="-10.011" y="3100" svgjs:data="{&quot;leading&quot;:&quot;1.3&quot;}">258</tspan><tspan x="-10.011" y="3224" svgjs:data="{&quot;leading&quot;:&quot;1.3&quot;}">268</tspan><tspan x="-10.011" y="3348" svgjs:data="{&quot;leading&quot;:&quot;1.3&quot;}">278</tspan><tspan x="-10.011" y="3472" svgjs:data="{&quot;leading&quot;:&quot;1.3&quot;}">288</tspan><tspan x="-10.011" y="3596" svgjs:data="{&quot;leading&quot;:&quot;1.3&quot;}">298</tspan></text></g><g xmlns="http://www.w3.org/2000/svg" id="_2_PT" data-name="2 PT"><path d="M16.7,72.014A14.692,14.692,0,0,1,6.3,46.927l8.2-8.2A14.646,14.646,0,0,1,32.61,36.612l-1.049,1.7a12.656,12.656,0,0,0-15.646,1.831l-8.2,8.2A12.7,12.7,0,0,0,25.678,66.3l8.2-8.2a12.656,12.656,0,0,0,1.83-15.646l1.7-1.05a14.651,14.651,0,0,1-2.119,18.11l-8.2,8.2A14.654,14.654,0,0,1,16.7,72.014Z" fill="#46708d" data-original="#000000" style=""/><path d="M16.7,65.694a8.374,8.374,0,0,1-5.924-14.3l8.2-8.2a8.294,8.294,0,0,1,8.734-1.963l-.674,1.883a6.311,6.311,0,0,0-6.646,1.494l-8.2,8.2a6.377,6.377,0,0,0,9.019,9.019l8.2-8.2a6.337,6.337,0,0,0,1.867-4.509,6.2,6.2,0,0,0-.371-2.131l1.879-.686a8.2,8.2,0,0,1,.492,2.817,8.323,8.323,0,0,1-2.453,5.923l-8.2,8.2A8.351,8.351,0,0,1,16.7,65.694Z" fill="#46708d" data-original="#000000" style=""/><path d="M49.122,39.62a14.692,14.692,0,0,1-7.725-2.2l1.049-1.7a12.659,12.659,0,0,0,15.646-1.831l8.2-8.2A12.7,12.7,0,0,0,48.329,7.729l-8.2,8.2A12.656,12.656,0,0,0,38.3,31.573l-1.7,1.05a14.651,14.651,0,0,1,2.119-18.11l8.2-8.2A14.7,14.7,0,0,1,67.7,27.1l-8.2,8.2A14.662,14.662,0,0,1,49.122,39.62Z" fill="#46708d" data-original="#000000" style=""/><path d="M49.148,33.292a8.432,8.432,0,0,1-2.847-.5l.674-1.883a6.317,6.317,0,0,0,6.646-1.495l8.2-8.2A6.377,6.377,0,1,0,52.8,12.2l-8.2,8.2a6.335,6.335,0,0,0-1.868,4.509,6.184,6.184,0,0,0,.372,2.13l-1.879.687a8.191,8.191,0,0,1-.493-2.817,8.322,8.322,0,0,1,2.454-5.923l8.2-8.2A8.377,8.377,0,1,1,63.232,22.633l-8.2,8.2A8.3,8.3,0,0,1,49.148,33.292Z" fill="#46708d" data-original="#000000" style=""/><path d="M28.248,49.931a4.159,4.159,0,0,1-2.942-7.1L42.817,25.317A4.161,4.161,0,1,1,48.7,31.2h0L31.19,48.714A4.15,4.15,0,0,1,28.248,49.931ZM45.76,26.1a2.148,2.148,0,0,0-1.528.633L26.72,44.243A2.162,2.162,0,0,0,29.776,47.3L47.288,29.789A2.162,2.162,0,0,0,45.76,26.1Z" fill="#46708d" data-original="#000000" style=""/></g></g></svg>
