<svg id="Capa_1" data-name="Capa 1" xmlns="http://www.w3.org/2000/svg" viewBox="0 0 139 122"><defs><style>.cls-1{fill:#094067;}</style></defs><title>MockUp_Proyecto DevDes icons</title><path class="cls-1" d="M44.49,21.24a23,23,0,0,0-23,23V54.82a22.63,22.63,0,0,0,1.76,8.32l-2,4a1.77,1.77,0,0,0,3.17,1.56l2.21-4.48a1.75,1.75,0,0,0,0-1.5A19.52,19.52,0,0,1,25,54.82V44.22A19.36,19.36,0,0,1,44.49,24.77H79.84A19.36,19.36,0,0,1,99.28,44.21V54.82A19.36,19.36,0,0,1,79.84,74.27H44.49a19.4,19.4,0,0,1-6.7-1.19,1.79,1.79,0,0,0-1.38.07L17.67,82.4,21.31,75a1.76,1.76,0,1,0-3.16-1.56l-4,8a5.76,5.76,0,0,0-.63,2,2.85,2.85,0,0,0,.73,2.26,2.88,2.88,0,0,0,2.27.74,5.78,5.78,0,0,0,2-.64l18.93-9.36a22.48,22.48,0,0,0,7,1.26H79.84a23,23,0,0,0,23-23V44.22a23,23,0,0,0-23-23Zm63.09,20.31a1.67,1.67,0,0,0-1.23.5,1.79,1.79,0,0,0,0,2.5,19.34,19.34,0,0,1,5.53,13.6V68.76a19.48,19.48,0,0,1-1.66,7.88,1.8,1.8,0,0,0,0,1.49l9,18.22-18.74-9.27a1.79,1.79,0,0,0-1.4-.08,19.29,19.29,0,0,1-6.68,1.2H57.07a19.33,19.33,0,0,1-14.86-6.86,1.81,1.81,0,0,0-2.42-.64,1.75,1.75,0,0,0-.63,2.4,22.87,22.87,0,0,0,17.91,8.64H92.43a22.71,22.71,0,0,0,7-1.25l18.93,9.35a5.8,5.8,0,0,0,2,.65,2.85,2.85,0,0,0,2.26-.75,2.77,2.77,0,0,0,.74-2.26,5.58,5.58,0,0,0-.64-2l-9.09-18.4a22.68,22.68,0,0,0,1.76-8.29V58.15a22.82,22.82,0,0,0-6.6-16.06,1.84,1.84,0,0,0-1.23-.54Zm-65.22,4.7a3.54,3.54,0,0,0-3.53,3.54h0a3.54,3.54,0,0,0,3.53,3.54h0a3.54,3.54,0,0,0,3.54-3.54h0a3.54,3.54,0,0,0-3.54-3.54Zm19.8,0a3.54,3.54,0,0,0-3.53,3.54h0a3.54,3.54,0,0,0,3.53,3.54h0a3.54,3.54,0,0,0,3.54-3.54h0a3.54,3.54,0,0,0-3.54-3.54Zm19.8,0a3.54,3.54,0,0,0-3.53,3.54h0A3.54,3.54,0,0,0,82,53.33h0a3.54,3.54,0,1,0,0-7.08Z"/></svg>