<svg id="Capa_1" data-name="Capa 1" xmlns="http://www.w3.org/2000/svg" xmlns:xlink="http://www.w3.org/1999/xlink" viewBox="0 0 441 137"><defs><style>.cls-1,.cls-7{fill:none;}.cls-2{clip-path:url(#clip-path);}.cls-3{opacity:0.4;}.cls-4{fill:#7390a5;}.cls-5{fill:#094067;}.cls-6{font-size:62.35px;fill:#fff;font-family:Poppins-SemiBold, Poppins;font-weight:600;}.cls-7{stroke:#094067;stroke-miterlimit:10;stroke-width:3px;}</style><clipPath id="clip-path"><rect class="cls-1" x="-1453" y="-488" width="1143" height="2029"/></clipPath></defs><title>MockUp_Proyecto DevDes progress</title><g class="cls-2"><g class="cls-3"><path class="cls-4" d="M-731.12,566.1C-814,456.37-844.75,298.27-785.52,165.67S-566.76-55.74-438.07-8.75c60.84,22.22,110.65,70.47,174.61,82.8,120.62,23.24,239.15-87.44,363-84.95C218.85-8.5,310,105.63,320.66,227.05S277.41,471.12,205.2,573.12C99.11,723-70.44,848.53-243.67,828c-146-17.34-389.13-154.18-487.45-261.86"/></g></g><circle class="cls-5" cx="65.37" cy="68.5" r="39"/><text class="cls-6" transform="translate(53.7 92.52)">1</text><line class="cls-7" x1="86.37" y1="68.5" x2="361.37" y2="68.5"/><circle class="cls-4" cx="374.37" cy="68.5" r="39"/><text class="cls-6" transform="translate(356.74 92.52)">2</text></svg>