<svg id="Capa_1" data-name="Capa 1" xmlns="http://www.w3.org/2000/svg" xmlns:xlink="http://www.w3.org/1999/xlink" viewBox="0 0 441 137"><defs><style>.cls-1,.cls-5{fill:none;}.cls-2{clip-path:url(#clip-path);}.cls-3{opacity:0.4;}.cls-4{fill:#7390a5;}.cls-5{stroke:#094067;stroke-miterlimit:10;stroke-width:3px;}.cls-6{fill:#094067;}.cls-7{font-size:62.35px;fill:#fff;font-family:Poppins-SemiBold, Poppins;font-weight:600;}</style><clipPath id="clip-path"><rect class="cls-1" x="-1453" y="-700" width="1143" height="2029"/></clipPath></defs><title>MockUp_Proyecto DevDes progress</title><g class="cls-2"><g class="cls-3"><path class="cls-4" d="M-731.12,354.1C-814,244.37-844.75,86.27-785.52-46.33s218.76-221.41,347.45-174.42c60.84,22.22,110.65,70.47,174.61,82.8,120.62,23.24,239.15-87.44,363-85,119.32,2.4,210.46,116.53,221.13,238S277.41,259.12,205.2,361.12C99.11,511-70.44,636.53-243.67,616c-146-17.34-389.13-154.18-487.45-261.86"/></g></g><line class="cls-5" x1="90" y1="68" x2="365" y2="68"/><circle class="cls-6" cx="378" cy="68" r="39"/><text class="cls-7" transform="translate(360.37 92.02)">2</text><circle class="cls-4" cx="69" cy="68" r="39"/><text class="cls-7" transform="translate(57.33 92.02)">1</text></svg>