<svg id="Capa_1" data-name="Capa 1" xmlns="http://www.w3.org/2000/svg" viewBox="0 0 178 137"><defs><style>.cls-1{fill:gray;}</style></defs><title>MockUp_Proyecto DevDes-uploadphoto</title><polygon class="cls-1" points="93.08 78.52 75.93 65.66 67.35 74.24 67.35 91.39 118.8 91.39 118.8 84.52 101.66 74.24 93.08 78.52"/><circle class="cls-1" cx="112.4" cy="63.51" r="6.43"/><polygon class="cls-1" points="60.27 67.38 60.27 50.16 77.49 50.16 77.49 38.67 60.27 38.67 60.27 21.44 48.78 21.44 48.78 38.67 31.56 38.67 31.56 50.16 48.78 50.16 48.78 67.38 60.27 67.38"/><path class="cls-1" d="M127.42,39.93H87.34v8.59h40.08V100H58.79V77.34H50.21V100a8.61,8.61,0,0,0,8.58,8.59h68.63A8.61,8.61,0,0,0,136,100V48.49A8.63,8.63,0,0,0,127.42,39.93Z"/></svg>