<svg id="Capa_1" data-name="Capa 1" xmlns="http://www.w3.org/2000/svg" viewBox="0 0 3341 2904"><defs><style>.cls-1{opacity:0.11;}.cls-2{fill:#094067;}.cls-3{opacity:0.3;}.cls-4{opacity:0.4;}.cls-5{fill:#7390a5;}.cls-6{fill:#90b4ce;}</style></defs><title>MockUp_Proyecto DevDes_Fondos</title><g class="cls-1"><path class="cls-2" d="M2954.42,2117.12c92.71,151.22,112.44,358,19.83,520.86s-308.5,256.94-467.84,180.53c-75.34-36.12-133.25-104.29-213.83-128.1-151.95-44.91-317.94,82.39-476.62,63.72-152.89-18-255.63-175.89-254.17-333.1s86-308,191.45-429.87c154.92-179.13,388.27-319.15,608.1-271.1,185.25,40.49,480.31,246.54,593.08,397.06"/></g><g class="cls-1"><path class="cls-2" d="M2762.42-15.88c92.71,151.22,112.44,358,19.83,520.86s-308.5,256.94-467.84,180.53c-75.34-36.12-133.25-104.29-213.83-128.1C1948.63,512.5,1782.64,639.8,1624,621.13c-152.89-18-255.63-175.89-254.17-333.1s86-307.95,191.45-429.87C1716.16-321,1949.51-461,2169.34-412.94c185.25,40.49,480.31,246.54,593.08,397.06"/></g><g class="cls-3"><path class="cls-2" d="M993.4,3137.17c-157.33,175.4-414.65,278.92-659.82,222.71S-117.21,3064.39-82,2832.5c16.65-109.65,81.22-209.25,80-320.89-2.26-210.54-230.78-373.68-269.32-582.85-37.13-201.54,124.81-392.25,326.89-450s428.58-7.22,626.37,80.85c290.6,129.39,561.94,373.5,586.9,671.68,21,251.28-126.91,705.17-275.45,905.86"/></g><g class="cls-4"><path class="cls-5" d="M1161.38,1486.07c-95.39-126.27-130.77-308.22-62.6-460.81s251.75-254.81,399.84-200.73c70,25.57,127.34,81.1,201,95.28,138.81,26.75,275.21-100.63,417.73-97.76,137.32,2.77,242.2,134.11,254.48,273.84s-49.77,280.88-132.87,398.26c-122.09,172.45-317.21,316.95-516.57,293.27-168-20-447.81-177.43-561-301.35"/></g><g class="cls-4"><path class="cls-5" d="M832.53-355C1005-279.09,1146.31-114.61,1162,76.13S1043.27,469.06,856.71,494.39c-88.21,12-180.21-13.12-265.67,12.28-161.17,47.91-231.61,250-383,324-145.88,71.3-331.24-4.62-424.1-139S-324.5,381.46-304.35,218.19c29.62-239.87,152-490.93,375-574.61C258.6-426.93,642.73-419,832.53-355"/></g><g class="cls-3"><path class="cls-6" d="M373.28,949.94C405,872,478.52,806.23,566.83,795.82s185,45.66,200.64,128.07c7.38,39-2.38,80.29,11.18,117.79,25.58,70.73,121,98.37,158.45,164.29,36.14,63.51,4.68,147.21-55.83,190.88s-141.93,53.76-218.21,47.75C551,1435.77,431.81,1386,388.34,1288.39c-36.64-82.21-40.88-253-15.06-338.45"/></g><g class="cls-3"><path class="cls-6" d="M2652.05,914.51c61.75-138.48,198-252.4,357.53-265.88s330.29,93.17,353.5,242.43c11,70.58-9.06,144.37,13.12,212.67C3418,1232.55,3588,1288,3651.63,1408.85c61.26,116.46-.34,265.24-111.86,340.24s-258.64,88.32-395.57,73C2943,1799.5,2731.47,1702.74,2659,1524.56c-61.05-150.15-58.52-457.77-7-610"/></g></svg>