<svg id="Capa_1" data-name="Capa 1" xmlns="http://www.w3.org/2000/svg" viewBox="0 0 893 826"><defs><style>.cls-1{fill:#094067;}</style></defs><title>MockUp_Proyecto DevDes Logo unique</title><path class="cls-1" d="M517.84,308.56c-4,46.66-43,76.34-83.24,76.48-13.47,0-26.94-.35-40.4-.63-7.92-.17-9.29-1.58-9.15-9.53.46-30.21,1-60.38,1.52-90.55.1-8.05-1.8-9.78-9.64-9.92-6.68-.1-8.86,3.17-9,9.46-.42,33.2-1,66.4-1.61,99.59-.36,18.92-.36,19.24,18.88,19.27,20.89,0,41.74,2.15,62.63-.14,2.46-.24,5.42,3,7.49-.91,0,0,1.41.38,1.62.81.77,1.61-.57,2.53-1.48,3.48-5.66,5.94-12.52,10.3-19.69,14-11.47,5.91-23.7,9.32-36.72,9.18-17.09-.21-34.14-.67-51.23-.7-6.3,0-8.62-2.57-8.44-8.83.6-23,.88-46,1.26-69q.58-32.7,1.13-65.44c.11-5.59-.42-11.15.18-16.78.49-4.53,2.35-7,6.89-6.85,22.72.81,45.57-.95,68.15,2.25,34.85,5,62,35,64.42,70.43a14.16,14.16,0,0,0,.14,2.08c.92,3.62-1.65,9.39,2.78,10.51,5.1,1.34,6.65-4.74,9-8.15,3.62-5.17,4.25-11.05,3.3-17.31-7-44.87-41.21-75-87.84-77.22-4.85-.21-9.74-.35-14.59-.39-4.64,0-6.79-2.35-6.86-6.85v-.71c.28-21.55-.91-18.88,18.18-18.39,14.35.35,28.8-.74,43.08,1.76C491.64,227.12,521.53,265.06,517.84,308.56Z"/><path class="cls-1" d="M771,307.64c-10.76-6.29-21.6-12.44-32.39-18.67q-93.69-54-187.29-108.06c-24.87-14.35-49.83-28.49-74.48-43.19-15.72-9.35-32.57-13.57-50.71-13.46a95.84,95.84,0,0,0-50.68,13.46Q230.66,222.17,85.65,306.24c-31.47,18.28-31.54,40.16-.17,58.3,98,56.62,195.8,113.48,294,169.61,32.07,18.32,65.41,17.79,97.87,0,20-11,39.6-23,59.39-34.46q117.06-68,234.17-136C799.34,347.14,799.3,324.28,771,307.64Zm-270.88,72a64.49,64.49,0,0,0-13.23,15.82c-20.18,34-50,52-89.85,52.15-22,.11-44.09-.66-66.11-1.09-8.86-.17-10.37-1.76-10.19-10.86q.74-45.63,1.54-91.19h0q.8-46.93,1.62-93.89c.1-6,3.83-7.95,9.24-7.84,9,.17,18.11.07,27.15.53,6.4.31,8.72-2.36,8.62-8.58-.14-9,.21-18.11.46-27.15.1-5,2.07-8.83,7.73-8.65,25,.91,50.32-1.8,75,2.67,41.71,7.56,69.56,32.6,80.7,73.35C544.11,316,532,351.36,500.12,379.63Z"/><path class="cls-1" d="M399.94,659.19c17.32,3.6,34.45,4.08,51.73.46,17.89-3.75,32.38-14.34,47.68-23.19q133.33-77.1,266.49-154.54c13.51-7.82,26.68-16.22,26.54-33.92-.08-9.64-.4-19.34-.72-29-.19-6,2.07-6.66,6.88-3.8,14.43,8.58,29.25,16.54,43.38,25.59,23.22,14.86,22.71,37.1-1.2,51.22-25.57,15.09-51.62,29.38-77.28,44.33C724.11,559.25,685,582.5,645.69,605.49c-34,19.87-67.81,40-102.12,59.25-34.78,19.54-71.67,19-109,8.8C422.56,670.25,410.78,666,399.94,659.19Z"/></svg>