<svg id="Capa_1" data-name="Capa 1" xmlns="http://www.w3.org/2000/svg" xmlns:xlink="http://www.w3.org/1999/xlink" viewBox="0 0 249 188"><defs><style>.cls-1{fill:none;}.cls-2{clip-path:url(#clip-path);}.cls-3{opacity:0.4;}.cls-4{fill:#7390a5;}.cls-5{fill:#fff;}</style><clipPath id="clip-path"><rect class="cls-1" x="-1441" y="-697" width="1143" height="2574"/></clipPath></defs><title>NewMessage</title><g class="cls-2"><g class="cls-3"><path class="cls-4" d="M-719.12,640.23C-802,501-832.75,300.47-773.52,132.25S-554.76-148.64-426.07-89C-365.23-60.83-315.42.38-251.46,16-130.84,45.5-12.31-94.91,111.53-91.75,230.85-88.7,322,56.08,332.66,210.11s-43.25,309.64-115.46,439C111.11,839.24-58.44,998.53-231.67,972.43c-146-22-389.13-195.59-487.45-332.2"/></g></g><path class="cls-5" d="M224.51,163.54a11.69,11.69,0,0,0-1.29-4.18L207.2,127a41.16,41.16,0,0,0,3-14.79v-19a42.39,42.39,0,0,0-12.29-29.87,4.76,4.76,0,0,0-3.22-1.41,4.43,4.43,0,0,0-3.3,1.33,4.68,4.68,0,0,0,0,6.59,33.22,33.22,0,0,1,9.48,23.36v19A33.2,33.2,0,0,1,198,125.68a4.7,4.7,0,0,0,.07,3.95l14.19,28.7-29.63-14.65a4.69,4.69,0,0,0-3.69-.21,33.43,33.43,0,0,1-11.47,2.06H104.07A33.28,33.28,0,0,1,78.6,133.8c-1.67-2.16-4.13-2.77-6.26-1.54a4.67,4.67,0,0,0-1.69,6.37l.13.19a42.49,42.49,0,0,0,33.29,16.05H167.5a41.2,41.2,0,0,0,12.42-2.13l33.4,16.51a11.46,11.46,0,0,0,4.17,1.3,5.58,5.58,0,0,0,.7,0,6.39,6.39,0,0,0,4.56-1.81A6.51,6.51,0,0,0,224.51,163.54Z"/><path class="cls-5" d="M144.91,129.88a42.76,42.76,0,0,0,42.72-42.72v-19a42.76,42.76,0,0,0-42.72-42.71H81.5A42.77,42.77,0,0,0,38.78,68.13v19a41.06,41.06,0,0,0,3,14.84l-3.25,6.56a4.67,4.67,0,0,0,2.11,6.25,4.65,4.65,0,0,0,6.25-2.12l4-8a4.7,4.7,0,0,0,.1-4,33.4,33.4,0,0,1-2.84-13.53v-19A33.42,33.42,0,0,1,81.5,34.75h63.41a33.42,33.42,0,0,1,33.37,33.38v19a33.42,33.42,0,0,1-33.37,33.38H81.5a33.53,33.53,0,0,1-11.49-2,4.71,4.71,0,0,0-3.66.18L36.71,133.32l4.58-9.26a4.66,4.66,0,0,0-5.68-6.48,4.62,4.62,0,0,0-2.69,2.35l-7.16,14.46a11.4,11.4,0,0,0-1.27,4.15,6.53,6.53,0,0,0,1.74,5.25,6.42,6.42,0,0,0,4.58,1.8l.7,0a11.8,11.8,0,0,0,4.15-1.3l33.42-16.51a41.2,41.2,0,0,0,12.42,2.13Z"/><path class="cls-5" d="M77.69,86a7.84,7.84,0,1,0-7.84-7.84A7.85,7.85,0,0,0,77.69,86Z"/><path class="cls-5" d="M156.56,78.13a7.84,7.84,0,0,0-7.83-7.84h0a7.84,7.84,0,1,0,7.83,7.84Z"/><path class="cls-5" d="M121.05,78.13A7.84,7.84,0,1,0,113.21,86,7.85,7.85,0,0,0,121.05,78.13Z"/></svg>