<svg id="Capa_1" data-name="Capa 1" xmlns="http://www.w3.org/2000/svg" viewBox="0 0 139 122"><defs><style>.cls-1{fill:#094067;opacity:0.75;}</style></defs><title>MockUp_Proyecto DevDes icons</title><path class="cls-1" d="M91.68,69.4V56.94A22.19,22.19,0,0,0,78.14,36.51a8.65,8.65,0,0,0-17.28,0A22.19,22.19,0,0,0,47.32,56.94V69.4a7,7,0,0,0,.56,14H59.22a10.28,10.28,0,0,0,20.56,0H91.12a7,7,0,0,0,.56-14ZM69.5,88.31a4.87,4.87,0,0,1-4.87-4.86h9.74A4.87,4.87,0,0,1,69.5,88.31ZM91.12,78H47.88a1.63,1.63,0,1,1,0-3.25,4.87,4.87,0,0,0,4.86-4.87v-13A16.77,16.77,0,0,1,64.38,41l1.87-.6V36.92a3.25,3.25,0,0,1,6.5,0v3.45l1.87.6a16.77,16.77,0,0,1,11.65,16v13a4.85,4.85,0,0,0,4.86,4.87,1.63,1.63,0,1,1,0,3.25Z"/></svg>