<svg id="Capa_1" data-name="Capa 1" xmlns="http://www.w3.org/2000/svg" viewBox="0 0 139 122"><defs><style>.cls-1{fill:#094067;}</style></defs><title>MockUp_Proyecto DevDes icons</title><path class="cls-1" d="M122.08,79.29l-5.84-1.46a25.24,25.24,0,0,0-1.94-4.65L117.4,68a1.86,1.86,0,0,0-.28-2.28l-5.81-5.81a1.85,1.85,0,0,0-2.27-.28l-5.16,3.09c-.67-.36-1.36-.69-2.06-1h0a26.13,26.13,0,0,0-2.61-.94L97.75,55A1.86,1.86,0,0,0,96,53.56H87.74A1.86,1.86,0,0,0,85.93,55l-1.46,5.84a25.91,25.91,0,0,0-4.65,1.93l-5.16-3.09a1.86,1.86,0,0,0-2.28.28l-5.82,5.81A1.86,1.86,0,0,0,66.29,68l3.09,5.16a25.2,25.2,0,0,0-1.93,4.65l-5.84,1.46a1.87,1.87,0,0,0-1.41,1.81v8.22a1.86,1.86,0,0,0,1.41,1.8l5.84,1.46a25.2,25.2,0,0,0,1.93,4.65l-3.09,5.17a1.86,1.86,0,0,0,.27,2.27l5.81,5.81a1.88,1.88,0,0,0,2.28.28l5.16-3.1a25.24,25.24,0,0,0,4.65,1.94l1.46,5.83a1.86,1.86,0,0,0,1.81,1.41h8.21a1.86,1.86,0,0,0,1.81-1.41l1.46-5.83a25.24,25.24,0,0,0,4.65-1.94l5.16,3.1a1.87,1.87,0,0,0,2.28-.28l5.81-5.81a1.86,1.86,0,0,0,.28-2.27l-3.1-5.17a24.53,24.53,0,0,0,1.93-4.65l5.84-1.46a1.86,1.86,0,0,0,1.41-1.8V81.1A1.86,1.86,0,0,0,122.08,79.29Zm-2.32,8.57-5.47,1.37a1.85,1.85,0,0,0-1.36,1.35,21.31,21.31,0,0,1-2.38,5.73,1.87,1.87,0,0,0,0,1.91l2.91,4.84-3.75,3.76-4.84-2.9a1.87,1.87,0,0,0-1.91,0,22,22,0,0,1-5.73,2.38,1.85,1.85,0,0,0-1.35,1.35l-1.38,5.48H89.19l-1.37-5.48a1.86,1.86,0,0,0-1.35-1.36,21.18,21.18,0,0,1-5.73-2.38,1.87,1.87,0,0,0-1.91,0L74,106.82l-3.77-3.75,2.91-4.84a1.87,1.87,0,0,0,0-1.91,21.5,21.5,0,0,1-2.38-5.73,1.87,1.87,0,0,0-1.35-1.35l-5.48-1.38V82.55l5.48-1.37a1.85,1.85,0,0,0,1.36-1.35,21.31,21.31,0,0,1,2.38-5.73,1.87,1.87,0,0,0,0-1.91l-2.91-4.84L74,63.59l4.84,2.9a1.87,1.87,0,0,0,1.91,0,22,22,0,0,1,5.74-2.38,1.85,1.85,0,0,0,1.35-1.35l1.38-5.48H94.5l1.37,5.48a1.85,1.85,0,0,0,1.35,1.36A21.75,21.75,0,0,1,103,66.49a1.82,1.82,0,0,0,1.91,0l4.84-2.9,3.76,3.75-2.9,4.84a1.82,1.82,0,0,0,0,1.91,21.61,21.61,0,0,1,2.37,5.73,1.86,1.86,0,0,0,1.36,1.35l5.47,1.38Z"/><path class="cls-1" d="M91.84,70.31a14.9,14.9,0,1,0,14.89,14.9A14.9,14.9,0,0,0,91.84,70.31Zm0,26.06A11.17,11.17,0,1,1,103,85.21,11.16,11.16,0,0,1,91.84,96.37Z"/><rect class="cls-1" x="101.15" y="27.5" width="3.72" height="29.78"/><path class="cls-1" d="M23,100.1v7.44a1.86,1.86,0,0,0,1.86,1.86H63.92v-3.72H26.7V100.1H49a1.81,1.81,0,0,0,.83-.19l7.45-3.72a1.85,1.85,0,0,0,0-3.33l-7.45-3.73a1.82,1.82,0,0,0-.83-.2H26.7V25.64H97.43a7.44,7.44,0,0,0,7.44-7.44V14.47A1.86,1.86,0,0,0,103,12.61H97.43v3.72h3.72V18.2a3.72,3.72,0,1,1-7.44,0V12.61a3.72,3.72,0,0,1,3.72-3.72h7.44a3.73,3.73,0,0,1,3.73,3.72V55.42h3.72V12.61a7.44,7.44,0,0,0-7.45-7.44H23a7.44,7.44,0,0,0-7.44,7.44V18.2A7.44,7.44,0,0,0,23,25.64V88.93H21.11a5.59,5.59,0,0,0,0,11.17ZM19.25,18.2V12.61A3.73,3.73,0,0,1,23,8.89H91a7.4,7.4,0,0,0-1,3.72V18.2a7.4,7.4,0,0,0,1,3.72H23A3.73,3.73,0,0,1,19.25,18.2ZM52.32,94.51l-3.73,1.86H47.17V92.65h1.42Zm-33.07,0a1.86,1.86,0,0,1,1.86-1.86H43.45v3.72H21.11A1.86,1.86,0,0,1,19.25,94.51Z"/><rect class="cls-1" x="15.53" y="33.09" width="3.72" height="37.23"/><path class="cls-1" d="M88.12,35V31.23H63.92a1.85,1.85,0,0,0-1.31.54l-3.4,3.4a20.41,20.41,0,0,0-26.52,2,1.87,1.87,0,0,0,0,2.63L45.86,53a1.84,1.84,0,0,0,1.31.55H65.78a1.87,1.87,0,0,0,1.87-1.86A20.42,20.42,0,0,0,62,37.63L64.69,35ZM63.82,49.84H47.94L36.71,38.61a16.71,16.71,0,0,1,19.83-.77l-5.1,5.1,2.63,2.63,5.32-5.31A16.7,16.7,0,0,1,63.82,49.84Z"/><rect class="cls-1" x="91.84" y="31.23" width="3.72" height="3.72"/><rect class="cls-1" x="36" y="59.15" width="3.72" height="3.72"/><rect class="cls-1" x="43.45" y="59.15" width="18.61" height="3.72"/><rect class="cls-1" x="32.28" y="66.59" width="29.78" height="3.72"/><rect class="cls-1" x="73.23" y="38.67" width="3.72" height="3.72"/><rect class="cls-1" x="80.68" y="38.67" width="14.89" height="3.72"/><rect class="cls-1" x="73.23" y="46.12" width="22.34" height="3.72"/><rect class="cls-1" x="32.28" y="74.04" width="24.2" height="3.72"/></svg>