<svg id="Capa_1" data-name="Capa 1" xmlns="http://www.w3.org/2000/svg" viewBox="0 0 854 354"><defs><style>.cls-1{fill:#094067;}</style></defs><title>Recursos logo</title><path class="cls-1" d="M270.51,136.92c-1.83,21.55-19.88,35.26-38.44,35.32-6.22,0-12.44-.16-18.66-.29-3.65-.08-4.29-.73-4.22-4.4.21-14,.47-27.88.7-41.82.05-3.72-.83-4.51-4.45-4.58-3.09-.05-4.09,1.46-4.14,4.37-.2,15.33-.49,30.66-.75,46-.16,8.74-.16,8.89,8.72,8.9,9.65,0,19.28,1,28.92-.06,1.14-.12,2.5,1.38,3.46-.43,0,0,.65.18.75.38.36.75-.26,1.17-.68,1.61a33.58,33.58,0,0,1-9.1,6.46,35.86,35.86,0,0,1-17,4.24c-7.89-.1-15.77-.31-23.66-.33-2.91,0-4-1.18-3.9-4.07.28-10.61.41-21.23.58-31.85q.27-15.11.52-30.22c0-2.58-.19-5.15.09-7.75.22-2.09,1.08-3.25,3.18-3.16,10.49.37,21.05-.44,31.47,1,16.1,2.29,28.63,16.16,29.75,32.53a7.48,7.48,0,0,0,.07,1c.42,1.67-.77,4.34,1.28,4.86,2.36.61,3.07-2.2,4.17-3.77a10.54,10.54,0,0,0,1.53-8c-3.21-20.72-19-34.66-40.57-35.66-2.24-.1-4.49-.17-6.74-.18s-3.13-1.09-3.16-3.17v-.32c.13-10-.42-8.72,8.39-8.5,6.63.17,13.3-.34,19.9.81A38.28,38.28,0,0,1,270.51,136.92Z"/><path class="cls-1" d="M387.42,136.5c-5-2.91-10-5.75-14.95-8.62Q329.2,102.94,286,78C274.49,71.35,263,64.82,251.58,58a47.16,47.16,0,0,0-46.82,0Q137.89,97,70.92,135.85c-14.53,8.44-14.56,18.55-.08,26.93,45.25,26.14,90.43,52.4,135.8,78.32,14.81,8.46,30.21,8.22,45.2,0,9.25-5.08,18.28-10.6,27.42-15.91q54.06-31.39,108.15-62.82C400.51,154.74,400.5,144.18,387.42,136.5ZM262.33,169.74a29.4,29.4,0,0,0-6.11,7.31c-9.32,15.7-23.11,24-41.49,24.08-10.19.05-20.37-.3-30.53-.5-4.1-.08-4.79-.81-4.71-5q.33-21.06.71-42.11h0q.36-21.67.74-43.36c0-2.76,1.77-3.67,4.28-3.62,4.17.08,8.36,0,12.53.24,3,.15,4-1.08,4-4-.06-4.17.1-8.36.21-12.54,0-2.32,1-4.07,3.58-4,11.54.42,23.23-.83,34.64,1.23,19.26,3.5,32.12,15.06,37.27,33.88C282.64,140.36,277.06,156.69,262.33,169.74Z"/><path class="cls-1" d="M216.06,298.85a57.77,57.77,0,0,0,23.89.21c8.27-1.73,15-6.62,22-10.71Q323.54,252.74,385,217c6.24-3.61,12.32-7.49,12.26-15.66,0-4.45-.19-8.94-.33-13.4-.09-2.77.95-3.07,3.17-1.75,6.66,4,13.51,7.64,20,11.81,10.72,6.86,10.48,17.14-.56,23.66-11.81,7-23.84,13.57-35.69,20.47-18.16,10.58-36.23,21.32-54.38,31.94-15.68,9.18-31.31,18.46-47.16,27.36-16.06,9-33.09,8.78-50.33,4.06A58.68,58.68,0,0,1,216.06,298.85Z"/><path class="cls-1" d="M469.7,130A15.6,15.6,0,0,1,484,121.27a15.18,15.18,0,0,1,6.67,1.52,13.41,13.41,0,0,1,5.05,4v-17h9.19v47.9h-9.19V152.4a12.36,12.36,0,0,1-4.73,4.28,14.9,14.9,0,0,1-7,1.61,15.33,15.33,0,0,1-8.29-2.33,16.16,16.16,0,0,1-5.92-6.57,21,21,0,0,1-2.17-9.74A20.68,20.68,0,0,1,469.7,130Zm24.76,4.11a9.14,9.14,0,0,0-3.5-3.63,9.35,9.35,0,0,0-4.72-1.26,9.21,9.21,0,0,0-4.67,1.23,9.35,9.35,0,0,0-3.46,3.59,11.31,11.31,0,0,0-1.33,5.6,11.63,11.63,0,0,0,1.33,5.66,9.63,9.63,0,0,0,3.5,3.73,8.89,8.89,0,0,0,4.63,1.29,9.35,9.35,0,0,0,4.72-1.26,9.14,9.14,0,0,0,3.5-3.63,13.06,13.06,0,0,0,0-11.32Z"/><path class="cls-1" d="M547.86,142.5H521.64a8.94,8.94,0,0,0,2.72,6.08,8.37,8.37,0,0,0,5.89,2.2,7.4,7.4,0,0,0,7.19-4.33h9.77a16.31,16.31,0,0,1-6,8.51,17.41,17.41,0,0,1-10.81,3.33,18.71,18.71,0,0,1-9.29-2.29,16.2,16.2,0,0,1-6.41-6.51,19.94,19.94,0,0,1-2.3-9.71,20.28,20.28,0,0,1,2.27-9.77,15.77,15.77,0,0,1,6.34-6.48,19,19,0,0,1,9.39-2.26,18.83,18.83,0,0,1,9.16,2.2,15.59,15.59,0,0,1,6.28,6.24,19,19,0,0,1,2.23,9.29A21.72,21.72,0,0,1,547.86,142.5Zm-9.13-6.09a7.19,7.19,0,0,0-2.52-5.6,9,9,0,0,0-6-2.1,8.24,8.24,0,0,0-5.67,2,9,9,0,0,0-2.81,5.66Z"/><path class="cls-1" d="M570.71,149.36l9.06-27.51h9.65l-13.27,35.86h-11l-13.2-35.86h9.71Z"/><path class="cls-1" d="M628.64,142.5H602.43a8.85,8.85,0,0,0,2.72,6.08,8.36,8.36,0,0,0,5.89,2.2,7.39,7.39,0,0,0,7.18-4.33H628a16.33,16.33,0,0,1-6,8.51,17.39,17.39,0,0,1-10.81,3.33,18.73,18.73,0,0,1-9.29-2.29,16.2,16.2,0,0,1-6.41-6.51,19.93,19.93,0,0,1-2.29-9.71A20.28,20.28,0,0,1,595.5,130a15.84,15.84,0,0,1,6.34-6.48,19,19,0,0,1,9.39-2.26,18.83,18.83,0,0,1,9.16,2.2,15.53,15.53,0,0,1,6.28,6.24A18.92,18.92,0,0,1,628.9,139,20.64,20.64,0,0,1,628.64,142.5Zm-9.12-6.09a7.23,7.23,0,0,0-2.53-5.6,8.94,8.94,0,0,0-6-2.1,8.22,8.22,0,0,0-5.66,2,9,9,0,0,0-2.82,5.66Z"/><path class="cls-1" d="M645.6,109.81v47.9h-9.06v-47.9Z"/><path class="cls-1" d="M662.17,156a16.54,16.54,0,0,1-6.5-6.51,19.42,19.42,0,0,1-2.36-9.71,19.17,19.17,0,0,1,2.42-9.71,17,17,0,0,1,6.64-6.51,20.38,20.38,0,0,1,18.77,0,17,17,0,0,1,6.64,6.51,19.17,19.17,0,0,1,2.42,9.71,18.69,18.69,0,0,1-2.49,9.71A17.32,17.32,0,0,1,681,156a19.61,19.61,0,0,1-9.48,2.29A18.94,18.94,0,0,1,662.17,156Zm14-6.8a8.78,8.78,0,0,0,3.47-3.59,12.16,12.16,0,0,0,1.29-5.83q0-5.11-2.68-7.86a8.85,8.85,0,0,0-6.58-2.76,8.62,8.62,0,0,0-6.5,2.76q-2.62,2.75-2.62,7.86t2.55,7.87a8.46,8.46,0,0,0,6.45,2.75A9.39,9.39,0,0,0,676.12,149.2Z"/><path class="cls-1" d="M711.79,122.92a14.61,14.61,0,0,1,7-1.65,15.67,15.67,0,0,1,8.32,2.26A15.93,15.93,0,0,1,733,130a20.68,20.68,0,0,1,2.17,9.68,21,21,0,0,1-2.17,9.74,16.23,16.23,0,0,1-5.89,6.57,15.29,15.29,0,0,1-8.32,2.33,14.59,14.59,0,0,1-7-1.61A15,15,0,0,1,707,152.6v22.2H697.9v-53H707V127A13.7,13.7,0,0,1,711.79,122.92Zm12.82,11.13a9.23,9.23,0,0,0-3.5-3.59,9.36,9.36,0,0,0-4.69-1.23,9.05,9.05,0,0,0-4.63,1.26,9.36,9.36,0,0,0-3.5,3.66,12.67,12.67,0,0,0,0,11.26,9.36,9.36,0,0,0,3.5,3.66,9.15,9.15,0,0,0,9.32,0,9.73,9.73,0,0,0,3.5-3.69,11.65,11.65,0,0,0,1.32-5.7A11.31,11.31,0,0,0,724.61,134.05Z"/><path class="cls-1" d="M775.91,142.5H749.69a8.89,8.89,0,0,0,2.72,6.08,8.36,8.36,0,0,0,5.89,2.2,7.39,7.39,0,0,0,7.18-4.33h9.78a16.33,16.33,0,0,1-6,8.51,17.37,17.37,0,0,1-10.81,3.33A18.73,18.73,0,0,1,749.2,156a16.17,16.17,0,0,1-6.4-6.51,19.83,19.83,0,0,1-2.3-9.71,20.28,20.28,0,0,1,2.26-9.77,15.8,15.8,0,0,1,6.35-6.48,20.38,20.38,0,0,1,18.54-.06,15.53,15.53,0,0,1,6.28,6.24,18.92,18.92,0,0,1,2.23,9.29A21.79,21.79,0,0,1,775.91,142.5Zm-9.13-6.09a7.19,7.19,0,0,0-2.53-5.6,8.94,8.94,0,0,0-6-2.1,8.22,8.22,0,0,0-5.66,2,9,9,0,0,0-2.82,5.66Z"/><path class="cls-1" d="M797.56,123a12.68,12.68,0,0,1,6.44-1.62v9.52h-2.4q-4.26,0-6.44,2t-2.16,7v17.87h-9.07V121.85H793v5.57A12.68,12.68,0,0,1,797.56,123Z"/><path class="cls-1" d="M504.49,226.68l-4.92-4.85a22.18,22.18,0,0,1-15.34,5.63,21,21,0,0,1-8.77-1.72,13.43,13.43,0,0,1-5.86-4.85,12.91,12.91,0,0,1-2.07-7.28,13.56,13.56,0,0,1,2.52-8,17.81,17.81,0,0,1,7.45-5.76,15.84,15.84,0,0,1-2.53-4.11,11.45,11.45,0,0,1-.77-4.24,10,10,0,0,1,1.61-5.6,11,11,0,0,1,4.63-3.92,16.28,16.28,0,0,1,7-1.42,14.78,14.78,0,0,1,7,1.55A10.09,10.09,0,0,1,500,192h-8.8a4.28,4.28,0,0,0-1-3.27,3.92,3.92,0,0,0-3-1.14,4.35,4.35,0,0,0-3,1.07,3.51,3.51,0,0,0-1.2,2.75,6.08,6.08,0,0,0,1,3.21,25.32,25.32,0,0,0,3.17,3.91l11.39,11.27a1.07,1.07,0,0,0,.2-.26c0-.09.08-.17.13-.26l3.69-6.15H512l-4.53,8a51.79,51.79,0,0,1-2.79,4.79l10.94,10.81ZM493.87,216.2l-11.13-11q-6.28,2.79-6.28,7.9a6.31,6.31,0,0,0,2.2,4.89,8.43,8.43,0,0,0,5.83,2A13.45,13.45,0,0,0,493.87,216.2Z"/><path class="cls-1" d="M520.06,199a15.6,15.6,0,0,1,14.27-8.74,15.32,15.32,0,0,1,6.67,1.52,13.26,13.26,0,0,1,5,4.05v-17h9.19v47.9h-9.19v-5.31a12.29,12.29,0,0,1-4.73,4.28,14.9,14.9,0,0,1-7.05,1.61,15.36,15.36,0,0,1-8.29-2.33,16.16,16.16,0,0,1-5.92-6.57,21,21,0,0,1-2.17-9.74A20.68,20.68,0,0,1,520.06,199Zm24.76,4.11a9.14,9.14,0,0,0-3.5-3.63,9.32,9.32,0,0,0-4.72-1.26,9.15,9.15,0,0,0-4.66,1.23,9.3,9.3,0,0,0-3.47,3.59,11.31,11.31,0,0,0-1.32,5.6,11.7,11.7,0,0,0,1.32,5.67A9.6,9.6,0,0,0,532,218a8.89,8.89,0,0,0,4.63,1.29,9.32,9.32,0,0,0,4.72-1.26,9.18,9.18,0,0,0,3.5-3.62,13.08,13.08,0,0,0,0-11.33Z"/><path class="cls-1" d="M597.18,211.47H571a8.85,8.85,0,0,0,2.72,6.08,8.37,8.37,0,0,0,5.89,2.21,7.4,7.4,0,0,0,7.18-4.34h9.78a16.33,16.33,0,0,1-6,8.51,17.39,17.39,0,0,1-10.81,3.33,18.73,18.73,0,0,1-9.29-2.29,16.2,16.2,0,0,1-6.41-6.51,19.93,19.93,0,0,1-2.29-9.71A20.28,20.28,0,0,1,564,199a15.8,15.8,0,0,1,6.35-6.48,20.38,20.38,0,0,1,18.54-.06,15.49,15.49,0,0,1,6.28,6.25,18.85,18.85,0,0,1,2.23,9.28A20.64,20.64,0,0,1,597.18,211.47Zm-9.12-6.08a7.2,7.2,0,0,0-2.53-5.6,8.9,8.9,0,0,0-6-2.11,8.22,8.22,0,0,0-5.66,2,9,9,0,0,0-2.82,5.67Z"/><path class="cls-1" d="M609.87,225.68a13.91,13.91,0,0,1-5.53-4.31,10.91,10.91,0,0,1-2.24-6h9.13a4.92,4.92,0,0,0,2,3.43,7.06,7.06,0,0,0,4.43,1.36,6.89,6.89,0,0,0,4-1,3.15,3.15,0,0,0,1.46-2.66,2.82,2.82,0,0,0-1.78-2.62,33.87,33.87,0,0,0-5.67-1.91,47.61,47.61,0,0,1-6.57-2,11.39,11.39,0,0,1-4.4-3.18A8.49,8.49,0,0,1,603,201a9.31,9.31,0,0,1,1.71-5.43,11.49,11.49,0,0,1,4.92-3.89,18.45,18.45,0,0,1,7.54-1.42q6.4,0,10.23,3.2a11.88,11.88,0,0,1,4.21,8.64h-8.68a4.67,4.67,0,0,0-1.78-3.39,6.57,6.57,0,0,0-4.24-1.27,6.68,6.68,0,0,0-3.78.91,2.88,2.88,0,0,0-1.33,2.52,3,3,0,0,0,1.81,2.76,28.3,28.3,0,0,0,5.63,1.9,48.07,48.07,0,0,1,6.41,2,11.31,11.31,0,0,1,4.37,3.21,8.75,8.75,0,0,1,1.91,5.72,9.45,9.45,0,0,1-1.72,5.57,11.22,11.22,0,0,1-4.91,3.85,18.63,18.63,0,0,1-7.48,1.39A18.86,18.86,0,0,1,609.87,225.68Z"/><path class="cls-1" d="M639.94,185a5.31,5.31,0,0,1,0-7.58,6,6,0,0,1,8,0,5.31,5.31,0,0,1,0,7.58,6,6,0,0,1-8,0Zm8.45,5.79v35.86h-9.07V190.82Z"/><path class="cls-1" d="M678.42,191.82a13,13,0,0,1,4.79,4.11v-5.11h9.13v36.12a19.22,19.22,0,0,1-2,8.9,15,15,0,0,1-6,6.22,19.24,19.24,0,0,1-9.71,2.29q-7.64,0-12.52-3.56a13.19,13.19,0,0,1-5.54-9.71h9a6.71,6.71,0,0,0,3.08,3.92,10.69,10.69,0,0,0,5.72,1.46,8.84,8.84,0,0,0,6.41-2.37c1.64-1.57,2.46-4,2.46-7.15v-5.57a13.63,13.63,0,0,1-4.82,4.21,14.4,14.4,0,0,1-7,1.68,15.36,15.36,0,0,1-8.29-2.33,16.16,16.16,0,0,1-5.92-6.57,21,21,0,0,1-2.17-9.74,20.68,20.68,0,0,1,2.17-9.64,15.85,15.85,0,0,1,5.89-6.48,15.67,15.67,0,0,1,8.32-2.26A15.14,15.14,0,0,1,678.42,191.82Zm3.5,11.27a9.14,9.14,0,0,0-3.5-3.63,9.32,9.32,0,0,0-4.72-1.26,9.15,9.15,0,0,0-4.66,1.23,9.3,9.3,0,0,0-3.47,3.59,11.31,11.31,0,0,0-1.32,5.6,11.7,11.7,0,0,0,1.32,5.67,9.6,9.6,0,0,0,3.5,3.72,8.89,8.89,0,0,0,4.63,1.29,9.32,9.32,0,0,0,4.72-1.26,9.18,9.18,0,0,0,3.5-3.62,13.08,13.08,0,0,0,0-11.33Z"/><path class="cls-1" d="M731.44,194.35q3.94,4.05,3.95,11.29v21h-9.07V206.87a9.34,9.34,0,0,0-2.13-6.57,7.59,7.59,0,0,0-5.83-2.29,7.74,7.74,0,0,0-5.92,2.29,9.22,9.22,0,0,0-2.17,6.57v19.81h-9.06V190.82h9.06v4.47a12.41,12.41,0,0,1,4.63-3.66,14.4,14.4,0,0,1,6.18-1.33A13.84,13.84,0,0,1,731.44,194.35Z"/><path class="cls-1" d="M777.07,211.47H750.86a8.89,8.89,0,0,0,2.71,6.08,8.38,8.38,0,0,0,5.89,2.21,7.4,7.4,0,0,0,7.19-4.34h9.77a16.31,16.31,0,0,1-5.95,8.51,17.41,17.41,0,0,1-10.81,3.33,18.73,18.73,0,0,1-9.29-2.29,16.14,16.14,0,0,1-6.41-6.51,19.94,19.94,0,0,1-2.3-9.71,20.28,20.28,0,0,1,2.27-9.77,15.77,15.77,0,0,1,6.34-6.48,19,19,0,0,1,9.39-2.26,18.83,18.83,0,0,1,9.16,2.2,15.49,15.49,0,0,1,6.28,6.25,18.85,18.85,0,0,1,2.23,9.28A21.72,21.72,0,0,1,777.07,211.47ZM768,205.39a7.2,7.2,0,0,0-2.53-5.6,8.92,8.92,0,0,0-6-2.11,8.22,8.22,0,0,0-5.66,2,9,9,0,0,0-2.82,5.67Z"/><path class="cls-1" d="M797.56,191.92A12.68,12.68,0,0,1,804,190.3v9.52h-2.4q-4.26,0-6.44,2t-2.16,7v17.86h-9.07V190.82H793v5.57A12.68,12.68,0,0,1,797.56,191.92Z"/></svg>