<svg id="Capa_1" data-name="Capa 1" xmlns="http://www.w3.org/2000/svg" viewBox="0 0 748 683"><defs><style>.cls-1{fill:#094067;}</style></defs><title>Recursos logo</title><path class="cls-1" d="M410.84,162.59c-2.52,29.57-27.27,48.38-52.74,48.47-8.54,0-17.07-.22-25.6-.4-5-.11-5.89-1-5.8-6,.29-19.14.65-38.26,1-57.38.07-5.1-1.14-6.19-6.1-6.28-4.24-.07-5.62,2-5.69,6-.26,21-.67,42.07-1,63.11-.22,12-.22,12.18,12,12.21,13.24,0,26.45,1.36,39.69-.09,1.56-.16,3.43,1.89,4.75-.58,0,0,.89.24,1,.51.49,1-.36,1.6-.94,2.21a45.63,45.63,0,0,1-12.47,8.86A49.14,49.14,0,0,1,335.59,239c-10.83-.13-21.63-.42-32.46-.45-4,0-5.46-1.62-5.35-5.59.38-14.55.56-29.12.8-43.69q.38-20.73.71-41.47c.07-3.55-.26-7.07.12-10.63.31-2.88,1.49-4.46,4.36-4.35,14.4.52,28.88-.6,43.19,1.43,22.08,3.14,39.28,22.17,40.82,44.63a8.21,8.21,0,0,0,.09,1.32c.58,2.29-1.05,6,1.76,6.66,3.23.85,4.21-3,5.73-5.17,2.29-3.28,2.69-7,2.09-11-4.41-28.44-26.12-47.55-55.66-48.94-3.08-.13-6.17-.22-9.25-.24s-4.3-1.49-4.34-4.35v-.44c.17-13.66-.58-12,11.52-11.66,9.09.23,18.25-.46,27.29,1.12C394.24,111,413.18,135,410.84,162.59Z"/><path class="cls-1" d="M571.25,162c-6.81-4-13.68-7.88-20.52-11.83Q491.38,116,432.05,81.71c-15.75-9.09-31.57-18-47.19-27.37a64.74,64.74,0,0,0-64.24,0Q228.86,107.86,137,161.12c-20,11.59-20,25.45-.11,36.95C199,233.94,261,270,323.2,305.54c20.33,11.61,41.45,11.27,62,0,12.7-7,25.09-14.55,37.63-21.83q74.17-43.1,148.38-86.19C589.21,187,589.19,172.55,571.25,162ZM399.61,207.63a41,41,0,0,0-8.38,10c-12.79,21.55-31.71,32.94-56.93,33-14,.07-27.94-.42-41.89-.69-5.62-.11-6.57-1.12-6.46-6.89q.46-28.91,1-57.78h0q.49-29.75,1-59.49c.06-3.79,2.42-5,5.86-5,5.72.11,11.47,0,17.2.33,4,.2,5.52-1.49,5.46-5.43-.09-5.73.13-11.48.29-17.2.06-3.19,1.31-5.6,4.9-5.49,15.84.58,31.89-1.13,47.53,1.7,26.42,4.79,44.07,20.65,51.14,46.48C427.49,167.32,419.82,189.71,399.61,207.63Z"/><path class="cls-1" d="M336.13,384.77a79.25,79.25,0,0,0,32.78.29c11.34-2.38,20.52-9.08,30.21-14.69q84.5-48.86,168.87-97.92c8.56-5,16.9-10.29,16.81-21.5,0-6.11-.25-12.26-.45-18.38-.12-3.8,1.31-4.22,4.35-2.41,9.15,5.44,18.54,10.48,27.5,16.21,14.71,9.42,14.38,23.52-.77,32.46-16.2,9.56-32.7,18.62-49,28.09-24.92,14.52-49.72,29.26-74.61,43.82-21.53,12.6-43,25.33-64.71,37.54-22,12.39-45.42,12.05-69.07,5.58C350.47,391.78,343,389.09,336.13,384.77Z"/><path class="cls-1" d="M142.14,480.1a21.47,21.47,0,0,1,19.59-12,21,21,0,0,1,9.15,2.09,18.2,18.2,0,0,1,6.92,5.55V452.39h12.62v65.73H177.8v-7.29a16.86,16.86,0,0,1-6.48,5.87,20.3,20.3,0,0,1-9.68,2.22,21.13,21.13,0,0,1-11.37-3.2,22.34,22.34,0,0,1-8.13-9,29,29,0,0,1-3-13.36A28.53,28.53,0,0,1,142.14,480.1Zm34,5.64a12.56,12.56,0,0,0-4.8-5,12.84,12.84,0,0,0-6.48-1.73,12.51,12.51,0,0,0-11.15,6.61,15.54,15.54,0,0,0-1.82,7.69,16,16,0,0,0,1.82,7.77,13.1,13.1,0,0,0,4.8,5.11,12.21,12.21,0,0,0,6.35,1.77,12.74,12.74,0,0,0,6.48-1.73,12.56,12.56,0,0,0,4.8-5,18,18,0,0,0,0-15.55Z"/><path class="cls-1" d="M249.39,497.25h-36a12.23,12.23,0,0,0,3.73,8.34,11.46,11.46,0,0,0,8.08,3q6.93,0,9.86-5.95H248.5a22.38,22.38,0,0,1-8.17,11.68,23.86,23.86,0,0,1-14.83,4.58,25.6,25.6,0,0,1-12.75-3.16,22.14,22.14,0,0,1-8.79-8.92,27.37,27.37,0,0,1-3.15-13.32,27.79,27.79,0,0,1,3.11-13.42,21.76,21.76,0,0,1,8.7-8.88,27.95,27.95,0,0,1,25.45-.09,21.27,21.27,0,0,1,8.61,8.57,26,26,0,0,1,3.07,12.75A29.06,29.06,0,0,1,249.39,497.25Zm-12.52-8.35a9.89,9.89,0,0,0-3.47-7.69,12.28,12.28,0,0,0-8.26-2.88,11.26,11.26,0,0,0-7.77,2.8,12.26,12.26,0,0,0-3.86,7.77Z"/><path class="cls-1" d="M280.74,506.66l12.44-37.75h13.23L288.2,518.12H273.1L255,468.91h13.33Z"/><path class="cls-1" d="M360.23,497.25h-36a12.23,12.23,0,0,0,3.73,8.34,11.49,11.49,0,0,0,8.09,3q6.92,0,9.85-5.95h13.42a22.45,22.45,0,0,1-8.18,11.68,23.84,23.84,0,0,1-14.83,4.58,25.56,25.56,0,0,1-12.74-3.16,22.16,22.16,0,0,1-8.8-8.92,27.37,27.37,0,0,1-3.15-13.32,27.9,27.9,0,0,1,3.11-13.42,21.76,21.76,0,0,1,8.7-8.88,27.95,27.95,0,0,1,25.45-.09,21.27,21.27,0,0,1,8.61,8.57,25.89,25.89,0,0,1,3.07,12.75A29.06,29.06,0,0,1,360.23,497.25Zm-12.52-8.35a9.88,9.88,0,0,0-3.46-7.69,12.3,12.3,0,0,0-8.26-2.88,11.3,11.3,0,0,0-7.78,2.8,12.26,12.26,0,0,0-3.86,7.77Z"/><path class="cls-1" d="M383.5,452.39v65.73H371.07V452.39Z"/><path class="cls-1" d="M406.24,515.76a22.73,22.73,0,0,1-8.93-8.92,26.76,26.76,0,0,1-3.24-13.32,26.2,26.2,0,0,1,3.33-13.33,23.11,23.11,0,0,1,9.11-8.92,27.81,27.81,0,0,1,25.75,0,23.11,23.11,0,0,1,9.11,8.92,26.2,26.2,0,0,1,3.33,13.33,25.64,25.64,0,0,1-3.42,13.32,23.64,23.64,0,0,1-9.24,8.92,26.76,26.76,0,0,1-13,3.16A25.83,25.83,0,0,1,406.24,515.76Zm19.14-9.32a12,12,0,0,0,4.75-4.93,16.55,16.55,0,0,0,1.78-8q0-7-3.69-10.8a12.12,12.12,0,0,0-9-3.77,11.87,11.87,0,0,0-8.93,3.77q-3.6,3.78-3.6,10.8t3.51,10.79a11.58,11.58,0,0,0,8.84,3.77A13,13,0,0,0,425.38,506.44Z"/><path class="cls-1" d="M474.32,470.38a20,20,0,0,1,9.63-2.27,21.56,21.56,0,0,1,11.42,3.11,21.92,21.92,0,0,1,8.08,8.84,28.47,28.47,0,0,1,3,13.28,29,29,0,0,1-3,13.36,22.37,22.37,0,0,1-8.08,9,21.11,21.11,0,0,1-11.42,3.2,19.82,19.82,0,0,1-9.54-2.22,20.47,20.47,0,0,1-6.71-5.6v30.47H455.27V468.91H467.7V476A18.84,18.84,0,0,1,474.32,470.38Zm17.58,15.27a12.54,12.54,0,0,0-4.79-4.92,12.8,12.8,0,0,0-6.44-1.69,12.45,12.45,0,0,0-6.35,1.73,12.77,12.77,0,0,0-4.8,5,17.3,17.3,0,0,0,0,15.45,12.77,12.77,0,0,0,4.8,5,12.56,12.56,0,0,0,12.79,0,13.24,13.24,0,0,0,4.79-5.07,15.79,15.79,0,0,0,1.82-7.81A15.43,15.43,0,0,0,491.9,485.65Z"/><path class="cls-1" d="M562.29,497.25h-36a12.23,12.23,0,0,0,3.73,8.34,11.48,11.48,0,0,0,8.08,3q6.93,0,9.86-5.95H561.4a22.38,22.38,0,0,1-8.17,11.68,23.86,23.86,0,0,1-14.83,4.58,25.6,25.6,0,0,1-12.75-3.16,22.14,22.14,0,0,1-8.79-8.92,27.37,27.37,0,0,1-3.15-13.32,27.79,27.79,0,0,1,3.11-13.42,21.76,21.76,0,0,1,8.7-8.88,27.95,27.95,0,0,1,25.45-.09,21.27,21.27,0,0,1,8.61,8.57,25.89,25.89,0,0,1,3.07,12.75A29.06,29.06,0,0,1,562.29,497.25Zm-12.52-8.35a9.89,9.89,0,0,0-3.47-7.69,12.28,12.28,0,0,0-8.26-2.88,11.26,11.26,0,0,0-7.77,2.8,12.26,12.26,0,0,0-3.86,7.77Z"/><path class="cls-1" d="M592,470.42a17.43,17.43,0,0,1,8.84-2.22v13.06h-3.29c-3.9,0-6.85.92-8.83,2.75s-3,5-3,9.59v24.52H573.31V468.91h12.43v7.64A17.58,17.58,0,0,1,592,470.42Z"/><path class="cls-1" d="M189.88,612.75l-6.75-6.66q-8.61,7.73-21,7.73a28.85,28.85,0,0,1-12-2.36,18.31,18.31,0,0,1-8-6.66,17.67,17.67,0,0,1-2.84-10,18.58,18.58,0,0,1,3.46-11,24.35,24.35,0,0,1,10.22-7.91,21.38,21.38,0,0,1-3.47-5.64,15.7,15.7,0,0,1-1.06-5.81,13.81,13.81,0,0,1,2.22-7.69,14.92,14.92,0,0,1,6.35-5.37,22.31,22.31,0,0,1,9.63-2,20.19,20.19,0,0,1,9.6,2.13,13.81,13.81,0,0,1,7.63,13.59H171.67a5.9,5.9,0,0,0-1.42-4.49,5.43,5.43,0,0,0-4.08-1.55,6,6,0,0,0-4.13,1.46,4.82,4.82,0,0,0-1.64,3.78,8.3,8.3,0,0,0,1.33,4.39,34.94,34.94,0,0,0,4.35,5.38l15.63,15.45a1.37,1.37,0,0,0,.27-.35l.18-.36,5.06-8.44h13L194,591.35a72,72,0,0,1-3.82,6.57l15,14.83Zm-14.56-14.39L160,583.27q-8.61,3.81-8.62,10.83a8.67,8.67,0,0,0,3,6.71,11.57,11.57,0,0,0,8,2.71A18.45,18.45,0,0,0,175.32,598.36Z"/><path class="cls-1" d="M211.24,574.74a21.47,21.47,0,0,1,19.59-12,21,21,0,0,1,9.15,2.09,18.2,18.2,0,0,1,6.92,5.55V547h12.62v65.72H246.9v-7.28a16.84,16.84,0,0,1-6.48,5.86,20.3,20.3,0,0,1-9.68,2.22,21,21,0,0,1-11.37-3.2,22.31,22.31,0,0,1-8.13-9,29,29,0,0,1-3-13.37A28.52,28.52,0,0,1,211.24,574.74Zm34,5.64a12.65,12.65,0,0,0-4.8-5,12.84,12.84,0,0,0-6.48-1.73,12.49,12.49,0,0,0-11.15,6.62A15.47,15.47,0,0,0,221,588a16,16,0,0,0,1.82,7.77,13,13,0,0,0,4.8,5.11,12.12,12.12,0,0,0,6.35,1.78,12.84,12.84,0,0,0,6.48-1.73,12.65,12.65,0,0,0,4.8-5,17.94,17.94,0,0,0,0-15.54Z"/><path class="cls-1" d="M317.07,591.88h-36a12.21,12.21,0,0,0,3.73,8.35,11.51,11.51,0,0,0,8.08,3q6.93,0,9.86-6h13.41A22.38,22.38,0,0,1,308,609a23.85,23.85,0,0,1-14.83,4.57,25.7,25.7,0,0,1-12.75-3.15,22.16,22.16,0,0,1-8.79-8.93,27.37,27.37,0,0,1-3.15-13.32,27.89,27.89,0,0,1,3.1-13.41,21.73,21.73,0,0,1,8.71-8.88,27.95,27.95,0,0,1,25.45-.09,21.27,21.27,0,0,1,8.61,8.57,26,26,0,0,1,3.06,12.74A29,29,0,0,1,317.07,591.88Zm-12.52-8.35a9.85,9.85,0,0,0-3.47-7.68,12.29,12.29,0,0,0-8.26-2.89,11.3,11.3,0,0,0-7.77,2.8,12.31,12.31,0,0,0-3.86,7.77Z"/><path class="cls-1" d="M334.48,611.38a19.16,19.16,0,0,1-7.6-5.91,15,15,0,0,1-3.06-8.26h12.52a6.84,6.84,0,0,0,2.8,4.71,9.76,9.76,0,0,0,6.08,1.86,9.47,9.47,0,0,0,5.56-1.42,4.3,4.3,0,0,0,2-3.64,3.84,3.84,0,0,0-2.44-3.6,46.26,46.26,0,0,0-7.77-2.62,66,66,0,0,1-9-2.75,15.62,15.62,0,0,1-6-4.35,11.69,11.69,0,0,1-2.54-7.91,12.76,12.76,0,0,1,2.36-7.46,15.87,15.87,0,0,1,6.75-5.33,25.34,25.34,0,0,1,10.34-2q8.81,0,14,4.39A16.31,16.31,0,0,1,364.23,579h-11.9a6.44,6.44,0,0,0-2.44-4.66,9,9,0,0,0-5.82-1.73,9.19,9.19,0,0,0-5.2,1.24,4,4,0,0,0-1.82,3.46,4.08,4.08,0,0,0,2.49,3.78,38.58,38.58,0,0,0,7.73,2.62,67.12,67.12,0,0,1,8.79,2.75,15.64,15.64,0,0,1,6,4.4,12.1,12.1,0,0,1,2.62,7.86,13,13,0,0,1-2.36,7.64,15.48,15.48,0,0,1-6.75,5.28,25.45,25.45,0,0,1-10.26,1.91A25.92,25.92,0,0,1,334.48,611.38Z"/><path class="cls-1" d="M375.73,555.6a7.3,7.3,0,0,1,0-10.39,8.19,8.19,0,0,1,10.93,0,7.3,7.3,0,0,1,0,10.39,8.19,8.19,0,0,1-10.93,0Zm11.59,7.95v49.2H374.89v-49.2Z"/><path class="cls-1" d="M428.54,564.92a18,18,0,0,1,6.57,5.64v-7h12.52v49.56a26.45,26.45,0,0,1-2.75,12.21,20.54,20.54,0,0,1-8.26,8.53A26.45,26.45,0,0,1,423.29,637q-10.47,0-17.18-4.89a18.11,18.11,0,0,1-7.6-13.32h12.35a9.23,9.23,0,0,0,4.22,5.38,14.71,14.71,0,0,0,7.86,2,12.16,12.16,0,0,0,8.79-3.24q3.38-3.24,3.38-9.81v-7.64a18.92,18.92,0,0,1-6.62,5.77,19.72,19.72,0,0,1-9.64,2.31,21,21,0,0,1-11.36-3.2,22.17,22.17,0,0,1-8.13-9,28.87,28.87,0,0,1-3-13.37,28.4,28.4,0,0,1,3-13.23,21.78,21.78,0,0,1,8.08-8.88,21.55,21.55,0,0,1,11.41-3.11A20.72,20.72,0,0,1,428.54,564.92Zm4.79,15.46a12.56,12.56,0,0,0-4.79-5,12.9,12.9,0,0,0-6.49-1.73,12.62,12.62,0,0,0-6.39,1.69,12.77,12.77,0,0,0-4.76,4.93,15.47,15.47,0,0,0-1.82,7.68,16,16,0,0,0,1.82,7.77,13.17,13.17,0,0,0,4.8,5.11,12.12,12.12,0,0,0,6.35,1.78,12.9,12.9,0,0,0,6.49-1.73,12.56,12.56,0,0,0,4.79-5,17.85,17.85,0,0,0,0-15.54Z"/><path class="cls-1" d="M501.28,568.39q5.42,5.55,5.41,15.5v28.86H494.26V585.57c0-3.9-1-6.91-2.93-9a10.4,10.4,0,0,0-8-3.15,10.63,10.63,0,0,0-8.12,3.15c-2,2.1-3,5.11-3,9v27.18H459.8v-49.2h12.43v6.13a17.12,17.12,0,0,1,6.35-5,19.73,19.73,0,0,1,8.48-1.82Q495.87,562.84,501.28,568.39Z"/><path class="cls-1" d="M563.89,591.88h-36a12.26,12.26,0,0,0,3.73,8.35,11.52,11.52,0,0,0,8.08,3q6.93,0,9.86-6H563A22.38,22.38,0,0,1,554.83,609,23.83,23.83,0,0,1,540,613.55a25.7,25.7,0,0,1-12.75-3.15,22.16,22.16,0,0,1-8.79-8.93,27.37,27.37,0,0,1-3.15-13.32,27.78,27.78,0,0,1,3.11-13.41,21.64,21.64,0,0,1,8.7-8.88,27.95,27.95,0,0,1,25.45-.09,21.21,21.21,0,0,1,8.61,8.57,25.86,25.86,0,0,1,3.07,12.74A29,29,0,0,1,563.89,591.88Zm-12.52-8.35a9.85,9.85,0,0,0-3.47-7.68,12.28,12.28,0,0,0-8.25-2.89,11.31,11.31,0,0,0-7.78,2.8,12.31,12.31,0,0,0-3.86,7.77Z"/><path class="cls-1" d="M592,565.06a17.43,17.43,0,0,1,8.84-2.22v13h-3.29c-3.9,0-6.85.92-8.83,2.76s-3,5-3,9.59v24.51H573.31v-49.2h12.43v7.64A17.5,17.5,0,0,1,592,565.06Z"/></svg>