<svg id="Capa_1" data-name="Capa 1" xmlns="http://www.w3.org/2000/svg" viewBox="0 0 1644 354"><defs><style>.cls-1,.cls-2{fill:#094067;}.cls-2{font-size:97.19px;font-family:Poppins-SemiBold, Poppins;font-weight:600;}</style></defs><title>Recursos logo</title><path class="cls-1" d="M290.66,122.26c-1.67,19.62-18.1,32.1-35,32.16-5.66,0-11.32-.15-17-.27-3.32-.07-3.9-.66-3.84-4,.19-12.71.43-25.39.64-38.08,0-3.38-.76-4.11-4.06-4.17-2.8,0-3.72,1.33-3.77,4-.17,14-.44,27.92-.68,41.87-.14,8-.14,8.09,7.94,8.11,8.79,0,17.55.9,26.34-.06,1-.11,2.27,1.25,3.15-.39,0,0,.59.17.68.34.32.68-.24,1.07-.62,1.47a30.54,30.54,0,0,1-8.28,5.88A32.69,32.69,0,0,1,240.73,173c-7.19-.09-14.36-.28-21.54-.3-2.65,0-3.63-1.08-3.55-3.71.25-9.65.37-19.32.53-29q.24-13.76.47-27.52c.05-2.35-.17-4.68.08-7,.2-1.91,1-3,2.9-2.88,9.55.34,19.16-.4,28.65.94,14.65,2.09,26.07,14.71,27.09,29.62a5,5,0,0,0,.06.87c.38,1.52-.7,3.95,1.16,4.42,2.15.56,2.8-2,3.8-3.43a9.58,9.58,0,0,0,1.39-7.27c-2.92-18.87-17.32-31.56-36.93-32.47-2-.09-4.1-.15-6.14-.16s-2.85-1-2.88-2.89v-.29c.12-9.07-.38-7.94,7.64-7.74,6,.15,12.11-.31,18.12.74A34.87,34.87,0,0,1,290.66,122.26Z"/><path class="cls-1" d="M397.1,121.88c-4.52-2.65-9.08-5.24-13.62-7.86q-39.39-22.71-78.74-45.43c-10.46-6-21-12-31.32-18.16a43,43,0,0,0-42.63,0Q169.92,85.94,109,121.28c-13.24,7.69-13.27,16.89-.08,24.52,41.19,23.8,82.33,47.71,123.64,71.31,13.48,7.7,27.5,7.48,41.15,0,8.42-4.63,16.65-9.66,25-14.49q49.22-28.59,98.46-57.2C409,138.48,409,128.87,397.1,121.88ZM283.21,152.14a27,27,0,0,0-5.56,6.66c-8.49,14.29-21,21.85-37.78,21.92-9.27.05-18.54-.28-27.8-.46-3.72-.07-4.36-.74-4.28-4.56q.3-19.19.65-38.34h0q.33-19.74.68-39.48c.05-2.51,1.61-3.34,3.89-3.3,3.8.08,7.62,0,11.42.22,2.69.14,3.66-1,3.62-3.6-.06-3.8.09-7.62.19-11.42,0-2.11.87-3.71,3.25-3.64,10.52.39,21.16-.75,31.54,1.13C280.58,80.45,292.29,91,297,108.11S296.62,140.25,283.21,152.14Z"/><path class="cls-1" d="M241.09,269.69a52.62,52.62,0,0,0,21.75.19c7.52-1.58,13.61-6,20-9.75q56.07-32.41,112.05-65c5.68-3.29,11.22-6.82,11.16-14.26,0-4-.16-8.13-.3-12.2-.08-2.52.87-2.8,2.89-1.6,6.07,3.61,12.3,7,18.24,10.76,9.77,6.25,9.55,15.6-.5,21.54-10.75,6.35-21.71,12.35-32.49,18.64-16.54,9.64-33,19.41-49.51,29.08-14.29,8.35-28.52,16.8-42.94,24.91-14.63,8.21-30.13,8-45.83,3.7A53.85,53.85,0,0,1,241.09,269.69Z"/><text class="cls-2" transform="translate(459.69 175.49)">developer&amp;designer.</text></svg>