<svg id="Capa_1" data-name="Capa 1" xmlns="http://www.w3.org/2000/svg" xmlns:xlink="http://www.w3.org/1999/xlink" viewBox="0 0 106 120"><defs><style>.cls-1{fill:none;}.cls-2{clip-path:url(#clip-path);}.cls-3{opacity:0.4;}.cls-4{fill:#7390a5;}.cls-5{fill:#094067;opacity:0.5;}</style><clipPath id="clip-path"><rect class="cls-1" x="-1556" y="-1107" width="1143" height="2574"/></clipPath></defs><title>sendMessageButton</title><g class="cls-2"><g class="cls-3"><path class="cls-4" d="M-834.12,230.23C-917,91-947.75-109.53-888.52-277.75S-669.76-558.64-541.07-499c60.84,28.19,110.65,89.4,174.61,105,120.62,29.48,239.15-110.93,363-107.77C115.85-498.7,207-353.92,217.66-199.89s-43.25,309.64-115.46,439C-3.89,429.24-173.44,588.53-346.67,562.43c-146-22-389.13-195.59-487.45-332.2"/></g></g><path class="cls-5" d="M65.51,52.43a1.45,1.45,0,0,0-2.08-2l-26,22.12L23.7,67.24a3.34,3.34,0,0,1-.39-6.06l57-31.93A2.82,2.82,0,0,1,84.44,32l-5,52.12a3.46,3.46,0,0,1-3.76,3.12,3.22,3.22,0,0,1-1-.24L58,80.52,47.52,90.35a2.7,2.7,0,0,1-3.83-.13A2.64,2.64,0,0,1,43,88.35V80.63Z"/></svg>